<?xml version="1.0" encoding="utf-8"?>
<!-- Generator: Adobe Illustrator 16.0.0, SVG Export Plug-In . SVG Version: 6.00 Build 0)  -->
<!DOCTYPE svg PUBLIC "-//W3C//DTD SVG 1.1//EN" "http://www.w3.org/Graphics/SVG/1.1/DTD/svg11.dtd">
<svg version="1.1" id="Layer_1" xmlns="http://www.w3.org/2000/svg" xmlns:xlink="http://www.w3.org/1999/xlink" x="0px" y="0px"
	 width="500px" height="500px" viewBox="0 0 500 500" enable-background="new 0 0 500 500" xml:space="preserve">
<g>
	<g>
		<g>
			<path fill="#FFFFFF" d="M232.088-13.51c-0.338,0.011-0.602,0.293-0.591,0.63c0.01,0.331,0.282,0.592,0.61,0.592
				c0.006,0,0.013,0,0.02,0c1.853-0.058,3.254-0.724,4.166-1.979c2.155-2.967,0.681-8.155,0.618-8.374
				c-0.061-0.207-0.225-0.367-0.433-0.421c-0.208-0.053-0.43,0.006-0.583,0.158c-0.853,0.843-1.91,1.026-3.03,1.221
				c-1.376,0.239-2.935,0.509-3.918,2.18c-1.481,2.516-0.652,4.771,0.119,5.812c-0.547,1.022-0.967,2.145-1.116,3.323
				c-0.042,0.334,0.195,0.64,0.529,0.682c0.026,0.003,0.052,0.005,0.078,0.005c0.303,0,0.566-0.225,0.605-0.534
				c0.529-4.175,5.155-7.797,5.202-7.834c0.266-0.206,0.316-0.589,0.109-0.855c-0.207-0.268-0.589-0.316-0.856-0.111
				c-0.134,0.104-2.223,1.738-3.84,4.148c-0.4-0.772-0.828-2.231,0.224-4.016c0.696-1.184,1.746-1.366,3.074-1.597
				c0.923-0.16,1.941-0.335,2.874-0.918c0.302,1.515,0.686,4.584-0.643,6.415C234.616-14.039,233.565-13.557,232.088-13.51z"/>
			<path fill="#FFFFFF" d="M228.555-9.432c-0.037,0-0.074-0.002-0.11-0.007c-0.227-0.029-0.43-0.145-0.571-0.326
				c-0.141-0.181-0.203-0.408-0.174-0.636c0.135-1.063,0.495-2.163,1.071-3.271c-0.9-1.315-1.425-3.608-0.041-5.959
				c1.042-1.77,2.732-2.063,4.091-2.299c1.081-0.188,2.1-0.365,2.897-1.152c0.213-0.21,0.529-0.298,0.821-0.222
				c0.292,0.076,0.526,0.303,0.611,0.593c0.163,0.565,1.521,5.597-0.655,8.591c-0.96,1.321-2.427,2.021-4.36,2.082h-0.001
				c-0.495,0-0.872-0.366-0.886-0.833c-0.015-0.474,0.359-0.872,0.833-0.888c1.394-0.043,2.382-0.492,3.021-1.371
				c1.197-1.648,0.915-4.446,0.664-5.875c-0.883,0.467-1.816,0.628-2.648,0.772c-1.317,0.229-2.266,0.394-2.903,1.477
				c-0.816,1.386-0.708,2.556-0.393,3.383c1.611-2.263,3.555-3.773,3.641-3.839c0.365-0.283,0.924-0.21,1.208,0.156
				c0.14,0.181,0.201,0.406,0.172,0.634c-0.029,0.228-0.145,0.431-0.327,0.572c-0.045,0.035-4.595,3.633-5.106,7.667
				C229.354-9.755,228.987-9.432,228.555-9.432z M236.325-22.832c-0.096,0-0.187,0.037-0.255,0.104
				c-0.908,0.898-2.002,1.088-3.161,1.289c-1.389,0.241-2.823,0.49-3.748,2.061c-1.306,2.219-0.76,4.37,0.104,5.537l0.094,0.127
				l-0.075,0.14c-0.589,1.101-0.956,2.189-1.088,3.236c-0.012,0.096,0.014,0.19,0.073,0.266c0.059,0.076,0.144,0.125,0.24,0.137
				l0.046,0.003c0.181,0,0.334-0.136,0.357-0.315c0.537-4.237,5.102-7.848,5.296-7.999c0.077-0.06,0.125-0.145,0.138-0.241
				c0.012-0.095-0.013-0.189-0.072-0.265c-0.12-0.155-0.353-0.184-0.507-0.066c-0.088,0.068-2.176,1.691-3.785,4.089l-0.235,0.351
				l-0.194-0.375c-0.398-0.769-0.897-2.343,0.23-4.258c0.754-1.283,1.908-1.483,3.244-1.715c0.935-0.162,1.896-0.328,2.787-0.885
				l0.307-0.192l0.071,0.354c0.331,1.661,0.682,4.727-0.686,6.61c-0.737,1.012-1.852,1.528-3.41,1.577
				c-0.199,0.006-0.355,0.173-0.349,0.372c0.006,0.196,0.164,0.35,0.36,0.35c1.782-0.056,3.118-0.687,3.983-1.876
				c2.071-2.851,0.642-7.943,0.58-8.158c-0.036-0.121-0.134-0.216-0.256-0.248C236.386-22.828,236.355-22.832,236.325-22.832z"/>
		</g>
	</g>
	<g>
		<path fill="#FFFFFF" d="M232.683-27.156c4.439,0,8.228,2.834,9.654,6.788h-1.396l2.248,2.447l1.981-2.447h-1.252
			c-1.485-4.795-5.958-8.29-11.234-8.29c-5.411,0-9.978,3.674-11.343,8.659h1.564C224.222-24.144,228.107-27.156,232.683-27.156z"/>
		<path fill="#FFFFFF" d="M232.657-6.401c-4.439,0-8.228-2.834-9.654-6.788h1.396l-2.248-2.447l-1.981,2.447h1.252
			c1.485,4.795,5.958,8.29,11.234,8.29c5.411,0,9.978-3.674,11.343-8.659h-1.564C241.118-9.413,237.232-6.401,232.657-6.401z"/>
	</g>
</g>
<g>
	<path fill="#FFFFFF" d="M275.012-18.499l-3.873-6.709l-4.254,2.456v-4.912h-7.746v4.913l-4.254-2.456l-3.873,6.709l4.252,2.455
		l-4.252,2.455l3.873,6.709l4.254-2.456v4.909h7.746v-4.907l4.254,2.455l3.873-6.709l-4.256-2.456L275.012-18.499z M272.365-12.878
		l-1.938,3.354l-5.479-3.165v6.326h-3.873v-6.328l-5.48,3.166l-1.936-3.354l5.479-3.164l-5.479-3.165l1.936-3.354l5.48,3.165v-6.332
		h3.873v6.331l5.479-3.166l1.938,3.354l-5.482,3.166L272.365-12.878z"/>
</g>
<g>
	<path fill="#FFFFFF" d="M292.684-26.156c4.439,0,8.229,2.834,9.653,6.788h-1.396l2.248,2.447l1.98-2.447h-1.252
		c-1.486-4.795-5.958-8.29-11.234-8.29c-5.412,0-9.979,3.674-11.344,8.659h1.564C284.223-23.144,288.107-26.156,292.684-26.156z"/>
	<path fill="#FFFFFF" d="M292.656-5.401c-4.439,0-8.229-2.834-9.653-6.788h1.396l-2.248-2.447l-1.98,2.447h1.252
		c1.486,4.795,5.958,8.29,11.234,8.29c5.412,0,9.979-3.674,11.344-8.659h-1.564C301.117-8.413,297.232-5.401,292.656-5.401z"/>
</g>
<g>
	<path fill="#FFFFFF" d="M293.402-9.832h-3.326L291.5-16.5h-2.605l0.512-2.318h0.08c1.935,0,2.781-0.4,3.63-2.079h2.639
		L293.402-9.832z"/>
</g>
<g>
	<g>
		<path fill="#FFFFFF" d="M346.524-5.139L346.524-5.139c-2.764,0-5.013-2.249-5.013-5.012c0-1.472,0.651-2.865,1.766-3.813v-4.896
			c-2.084-0.416-4.09-1.24-5.872-2.414l-3.55,3.55c0.075,1.419-0.442,2.783-1.457,3.798c-0.947,0.947-2.206,1.468-3.546,1.468
			c-1.338,0-2.597-0.521-3.543-1.467c-0.946-0.947-1.469-2.206-1.469-3.544c0-1.338,0.521-2.597,1.469-3.543
			c0.945-0.945,2.202-1.465,3.54-1.465c0.136,0,0.271,0.005,0.404,0.016l3.464-3.464c-1.185-1.774-2.021-3.773-2.451-5.856h-5.016
			c-0.951,1.058-2.282,1.656-3.717,1.656c-2.763,0-5.012-2.249-5.012-5.012c0-2.764,2.249-5.012,5.014-5.012
			c1.472,0,2.865,0.652,3.812,1.765h4.896c0.415-2.084,1.238-4.089,2.412-5.872l-3.55-3.551c-1.431,0.074-2.794-0.452-3.799-1.457
			c-1.954-1.954-1.954-5.133,0-7.087c0.946-0.947,2.205-1.468,3.543-1.468c1.34,0,2.599,0.521,3.546,1.468
			c1.041,1.042,1.563,2.488,1.447,3.944l3.464,3.464c1.773-1.184,3.773-2.021,5.857-2.451v-5.017
			c-1.059-0.95-1.656-2.281-1.656-3.716c0-2.763,2.248-5.011,5.013-5.011c1.339,0,2.598,0.521,3.544,1.468
			c0.945,0.947,1.468,2.206,1.467,3.544c0,1.472-0.652,2.865-1.766,3.813v4.895c2.084,0.416,4.091,1.24,5.872,2.413l3.551-3.549
			c-0.076-1.419,0.442-2.783,1.457-3.798c0.946-0.946,2.204-1.468,3.544-1.468c1.339,0,2.597,0.521,3.544,1.468
			c1.953,1.954,1.953,5.134,0,7.087c-0.945,0.945-2.202,1.465-3.541,1.465c-0.136,0-0.271-0.005-0.404-0.016l-3.463,3.463
			c1.184,1.774,2.021,3.774,2.451,5.856h5.016c0.951-1.057,2.281-1.655,3.717-1.655c2.764,0,5.013,2.248,5.013,5.01
			c0,2.764-2.248,5.012-5.013,5.012c-1.473,0-2.865-0.652-3.812-1.764h-4.896c-0.415,2.084-1.238,4.089-2.413,5.872l3.551,3.55
			c1.428-0.072,2.794,0.452,3.799,1.457c1.953,1.955,1.953,5.134,0,7.088c-0.947,0.946-2.205,1.468-3.544,1.468
			c-1.34,0-2.598-0.521-3.544-1.468c-1.041-1.042-1.566-2.488-1.449-3.944l-3.465-3.464c-1.773,1.184-3.773,2.021-5.855,2.45v5.017
			c1.058,0.95,1.655,2.281,1.655,3.716C351.536-7.388,349.288-5.14,346.524-5.139z M337.212-23.552l0.604,0.438
			c1.909,1.387,4.146,2.305,6.465,2.656l0.743,0.113v7.262l-0.372,0.261c-0.871,0.612-1.393,1.61-1.393,2.671
			c0,1.8,1.464,3.265,3.265,3.265c1.8,0,3.265-1.465,3.265-3.265c0-1.032-0.477-1.981-1.307-2.606l-0.351-0.262v-7.34l0.737-0.117
			c2.319-0.368,4.55-1.301,6.448-2.699l0.604-0.445l5.138,5.137l-0.078,0.448c-0.185,1.049,0.153,2.123,0.903,2.873
			c0.616,0.617,1.438,0.957,2.31,0.957s1.69-0.34,2.308-0.956c1.272-1.272,1.271-3.344,0-4.617
			c-0.613-0.613-1.431-0.951-2.303-0.951c-0.154,0-0.312,0.011-0.465,0.033l-0.433,0.062l-5.19-5.192l0.438-0.604
			c1.387-1.911,2.306-4.146,2.656-6.466l0.113-0.743h7.262l0.262,0.372c0.611,0.872,1.609,1.393,2.67,1.393
			c1.8,0,3.265-1.464,3.265-3.264c0-1.799-1.466-3.263-3.265-3.263c-1.03,0-1.981,0.476-2.605,1.307l-0.264,0.348h-7.338
			l-0.117-0.737c-0.367-2.319-1.302-4.549-2.698-6.448l-0.445-0.605l5.137-5.137l0.447,0.079c0.188,0.033,0.379,0.049,0.568,0.049
			c0.872,0,1.689-0.338,2.305-0.954c1.271-1.272,1.273-3.343,0-4.616c-0.615-0.616-1.437-0.956-2.308-0.956
			c-0.872,0-1.691,0.34-2.309,0.956c-0.729,0.729-1.063,1.738-0.919,2.767l0.062,0.432l-5.192,5.192l-0.604-0.438
			c-1.91-1.386-4.146-2.304-6.467-2.656l-0.743-0.113v-7.261l0.372-0.261c0.872-0.612,1.395-1.611,1.395-2.671
			c0-0.873-0.34-1.692-0.955-2.309c-0.617-0.617-1.438-0.956-2.309-0.956c-1.801,0-3.265,1.464-3.265,3.264
			c0,1.032,0.478,1.982,1.308,2.606l0.349,0.262v7.339l-0.737,0.117c-2.319,0.369-4.55,1.302-6.448,2.7l-0.604,0.445l-5.138-5.137
			l0.079-0.447c0.184-1.049-0.154-2.124-0.904-2.874c-0.617-0.617-1.438-0.956-2.31-0.956c-0.87,0-1.69,0.339-2.308,0.956
			c-1.271,1.273-1.271,3.344,0,4.616c0.614,0.614,1.432,0.952,2.303,0.952c0.155,0,0.312-0.011,0.464-0.033l0.434-0.061l5.191,5.192
			l-0.438,0.604c-1.386,1.91-2.305,4.146-2.655,6.466l-0.112,0.743h-7.263l-0.262-0.372c-0.611-0.872-1.61-1.393-2.67-1.393
			c-1.801,0-3.267,1.464-3.267,3.264c0,1.8,1.466,3.265,3.265,3.265c1.031,0,1.98-0.477,2.606-1.307l0.263-0.349h7.338l0.117,0.737
			c0.367,2.319,1.301,4.549,2.698,6.448l0.445,0.604l-5.137,5.137l-0.447-0.078c-0.188-0.033-0.379-0.049-0.569-0.049
			c-0.87,0-1.688,0.338-2.305,0.954c-0.616,0.616-0.956,1.436-0.956,2.308s0.34,1.692,0.956,2.309
			c0.616,0.616,1.438,0.956,2.309,0.956c0.872,0,1.691-0.339,2.309-0.956c0.729-0.729,1.063-1.738,0.919-2.767l-0.062-0.432
			L337.212-23.552z M342.502-23.441c-0.698,0-1.354-0.272-1.848-0.765c-1.499-1.5-2.324-3.493-2.324-5.613
			c0-2.12,0.825-4.114,2.324-5.612c1.561-1.56,3.754-2.416,5.972-2.316h0.045c0.702,0,1.371-0.283,1.884-0.795
			c0.514-0.512,0.795-1.193,0.795-1.918s-0.281-1.406-0.795-1.918c-1.018-1.019-1.019-2.676,0-3.694
			c0.493-0.494,1.149-0.766,1.849-0.766c0.696,0,1.354,0.271,1.847,0.765c1.499,1.5,2.325,3.493,2.325,5.613
			s-0.826,4.113-2.326,5.612s-3.49,2.325-5.604,2.325h-0.08c-0.025,0-0.052,0-0.076-0.001l-0.125-0.005
			c-0.749-0.025-1.487,0.267-2.014,0.792c-0.513,0.513-0.796,1.194-0.796,1.918s0.283,1.406,0.795,1.918
			c1.02,1.019,1.02,2.676,0.001,3.694C343.855-23.713,343.199-23.441,342.502-23.441z M346.273-36.009
			c-1.635,0-3.231,0.661-4.384,1.812c-1.17,1.169-1.812,2.723-1.812,4.376c0,1.654,0.644,3.208,1.812,4.377
			c0.162,0.164,0.38,0.253,0.611,0.253c0.23,0,0.447-0.09,0.611-0.253c0.336-0.337,0.336-0.886-0.001-1.224
			c-0.844-0.842-1.309-1.962-1.309-3.154c0-1.191,0.465-2.312,1.31-3.154c0.866-0.868,2.085-1.347,3.317-1.303l0.211,0.005
			c1.648,0,3.2-0.644,4.369-1.813c1.17-1.169,1.814-2.724,1.814-4.376c0-1.654-0.645-3.208-1.812-4.377
			c-0.164-0.164-0.381-0.253-0.61-0.253c-0.231,0-0.449,0.09-0.612,0.253c-0.337,0.337-0.337,0.886,0.001,1.223
			c0.842,0.842,1.307,1.962,1.307,3.154c0,1.191-0.465,2.312-1.307,3.154c-0.865,0.864-2.006,1.331-3.208,1.306l-0.022-0.001
			C346.465-36.007,346.369-36.009,346.273-36.009z"/>
	</g>
</g>
<path fill="#FFFFFF" d="M388.719-25.288c0.836,0.559,1.801,0.845,2.774,0.845c0.644,0,1.29-0.125,1.903-0.378
	c15.75-6.49,22.34-9.715,25.104-11.478v1.799c0,0.553,0.447,1,1,1h4c0.553,0,1-0.447,1-1v-6.355
	c0.176,0.112,0.361,0.214,0.555,0.303c0.625,0.285,1.28,0.426,1.931,0.426c1.039,0,2.06-0.358,2.894-1.053l14.367-11.972
	c1.759-1.467,2.312-3.906,1.345-5.934c-1.035-2.17-2.526-3.415-4.09-3.415h-14c-1.13,0-2.162,0.391-3,1.026V-62.5
	c0-0.553-0.447-1-1-1h-4c-0.553,0-1,0.447-1,1v1.01c-4.232-1.776-14.117-2.01-19-2.01c-9.111,0-13,2.393-13,8v26.053
	C386.5-27.773,387.33-26.219,388.719-25.288z M427.5-60.5h14c0.729,0,1.625,0.894,2.284,2.276c0.573,1.201,0.234,2.655-0.82,3.535
	l-14.366,11.972c-0.905,0.757-1.994,0.674-2.709,0.346c-0.854-0.392-1.373-1.169-1.389-2.129v-13
	C424.5-59.154,425.846-60.5,427.5-60.5z M420.5-61.5h2v26h-2v-3v-21V-61.5z M388.5-55.5c0-2.903,0.85-6,11-6
	c8.893,0,17.812,1.016,19,2.146v20.626c-1.07,1.13-8.359,4.845-25.863,12.057c-0.94,0.389-1.962,0.285-2.805-0.279
	c-0.848-0.567-1.332-1.477-1.332-2.497V-55.5z"/>
<path fill="#FFFFFF" d="M396.5-56.5v-2c-2.757,0-5,2.243-5,5h2C393.5-55.154,394.846-56.5,396.5-56.5z"/>
<path fill="#FFFFFF" d="M446.5-25.5c0-0.553-0.447-1-1-1c-2.757,0-5-2.243-5-5c0-0.553-0.447-1-1-1s-1,0.447-1,1
	c0,2.757-2.243,5-5,5c-0.553,0-1,0.447-1,1s0.447,1,1,1c2.757,0,5,2.243,5,5c0,0.553,0.447,1,1,1s1-0.447,1-1c0-2.757,2.243-5,5-5
	C446.053-24.5,446.5-24.947,446.5-25.5z M439.5-23.103c-0.591-0.98-1.417-1.807-2.396-2.397c0.98-0.591,1.807-1.417,2.396-2.397
	c0.591,0.98,1.417,1.807,2.396,2.397C440.917-24.909,440.091-24.083,439.5-23.103z"/>
<path fill="#FFFFFF" d="M420.5-21.5c0-0.553-0.447-1-1-1s-1,0.447-1,1c0,2.767-1.232,4-4,4c-0.553,0-1,0.447-1,1s0.447,1,1,1
	c2.768,0,4,1.233,4,4c0,0.553,0.447,1,1,1s1-0.447,1-1c0-2.767,1.232-4,4-4c0.553,0,1-0.447,1-1s-0.447-1-1-1
	C421.732-17.5,420.5-18.733,420.5-21.5z M419.5-15.287c-0.327-0.48-0.732-0.886-1.213-1.213c0.479-0.327,0.886-0.732,1.213-1.213
	c0.327,0.48,0.732,0.886,1.213,1.213C420.232-16.173,419.827-15.768,419.5-15.287z"/>
<rect x="408.5" y="-28.5" fill="#FFFFFF" width="2" height="2"/>
<rect x="429.5" y="-37.5" fill="#FFFFFF" width="2" height="2"/>
<rect x="431.5" y="-14.5" fill="#FFFFFF" width="2" height="2"/>
<rect x="392.5" y="-17.5" fill="#FFFFFF" width="2" height="2"/>
<rect x="386.5" y="-5.5" fill="#FFFFFF" width="2" height="2"/>
<rect x="403.5" y="-7.5" fill="#FFFFFF" width="2" height="2"/>
<rect x="441.5" y="-5.5" fill="#FFFFFF" width="2" height="2"/>
<rect x="443.5" y="-48.5" fill="#FFFFFF" width="2" height="2"/>
<g>
	<g transform="translate(-481.000000, -405.000000)">
		<g transform="translate(481.000000, 405.000000)">
			<path fill="#FFFFFF" d="M496.73-29.44h-13.675l-6.467-10.383l-0.836-1.34v-0.001l-2.242-3.598l9.562-16.203h18.161l9.561,16.203
				L501.25-29.44H496.73z M502.67-17.195l-6.547,12.161h-13.047l-6.524-11.187l6.524-11.187h13.096L502.67-17.195z M455.195-28.424
				l6.524-11.187h12.605l6.979,11.204l-2.173,3.723l-4.343,7.446h-13.07L455.195-28.424z M502.678-27.887l10.17-16.325
				c0.2-0.322,0.205-0.728,0.013-1.055L502.69-62.5c-0.184-0.311-0.517-0.5-0.876-0.5h-19.322c-0.359,0-0.691,0.19-0.875,0.5
				l-10.17,17.233c-0.193,0.327-0.188,0.732,0.013,1.055l1.6,2.568h-11.923c-0.36,0-0.695,0.191-0.879,0.504l-7.118,12.204
				c-0.185,0.317-0.185,0.708,0,1.025l7.118,12.203c0.184,0.313,0.519,0.505,0.879,0.505h13.654l6.823,11.699
				C481.797-3.191,482.132-3,482.492-3h14.238c0.373,0,0.718-0.205,0.895-0.535l7.119-13.221c0.174-0.324,0.16-0.717-0.037-1.028
				l-6.124-9.624h3.231C502.166-27.407,502.492-27.588,502.678-27.887L502.678-27.887z"/>
			<path fill="#FFFFFF" d="M498.764-58.932h-13.221c-0.352,0-0.68,0.183-0.865,0.484l-8.137,13.221
				c-0.293,0.478-0.145,1.105,0.334,1.399c0.166,0.102,0.35,0.151,0.532,0.151c0.341,0,0.675-0.172,0.867-0.484l7.837-12.736h12.651
				c0.562,0,1.019-0.455,1.019-1.017C499.781-58.478,499.325-58.932,498.764-58.932"/>
			<path fill="#FFFFFF" d="M472.323-37.576h-8.136c-0.352,0-0.679,0.181-0.862,0.478l-5.085,8.138
				c-0.298,0.476-0.152,1.104,0.324,1.401c0.168,0.104,0.354,0.154,0.536,0.154c0.341,0,0.671-0.17,0.863-0.478l4.786-7.66h7.572
				c0.562,0,1.017-0.455,1.017-1.017C473.34-37.122,472.885-37.576,472.323-37.576"/>
			<path fill="#FFFFFF" d="M479.594-16.676c-0.295,0.478-0.147,1.104,0.33,1.4c0.167,0.104,0.353,0.152,0.534,0.152
				c0.341,0,0.673-0.171,0.865-0.481l4.786-7.734h8.587c0.562,0,1.017-0.455,1.017-1.017s-0.455-1.017-1.017-1.017h-9.153
				c-0.352,0-0.679,0.183-0.863,0.482L479.594-16.676z"/>
		</g>
	</g>
</g>
<g>
	<path fill="#FFFFFF" d="M559.317-50.664c-0.229-0.316-0.598-0.503-0.987-0.501h-13.326c-0.549,0-1.03,0.368-1.173,0.897
		l-5.006,18.461c-0.174,0.647,0.21,1.312,0.855,1.486c0.104,0.028,0.21,0.042,0.317,0.042h3.783v15.453
		c0,0.67,0.543,1.213,1.213,1.214c0.367,0,0.717-0.167,0.947-0.454l20.006-25.003c0.42-0.522,0.336-1.285-0.187-1.705
		c-0.216-0.173-0.483-0.268-0.762-0.268h-8.328l2.807-8.531C559.604-49.941,559.543-50.347,559.317-50.664z M562.479-38.615
		l-16.262,20.329v-13.205c0-0.67-0.543-1.213-1.213-1.213h-3.421l4.343-16.035h10.73l-2.807,8.531
		c-0.224,0.632,0.107,1.325,0.739,1.548c0.132,0.046,0.271,0.07,0.409,0.069h7.479v-0.024H562.479z"/>
	<path fill="#FFFFFF" d="M568.188-11.413c-4.601,3.208-10.078,4.919-15.688,4.9c-15.185,0.023-27.513-12.268-27.535-27.452
		c-0.008-5.262,1.494-10.415,4.327-14.848c0.361-0.565,0.197-1.316-0.367-1.678c-0.564-0.362-1.315-0.197-1.679,0.368
		c-8.968,13.879-4.985,32.4,8.894,41.367c10.31,6.66,23.639,6.35,33.625-0.782l1.084,1.293l1.988-5.458L567.12-12.7L568.188-11.413z
		"/>
	<path fill="#FFFFFF" d="M552.5-63.926c-6.179-0.017-12.208,1.895-17.248,5.466l-1.084-1.293l-1.989,5.45l5.718-1.003l-1.066-1.342
		c4.602-3.188,10.072-4.882,15.671-4.852c15.185-0.019,27.509,12.275,27.528,27.459c0.008,5.728-1.774,11.315-5.098,15.981
		c-0.412,0.527-0.32,1.29,0.206,1.703c0.527,0.413,1.289,0.321,1.703-0.206c0.022-0.029,0.044-0.059,0.064-0.09
		c9.584-13.461,6.439-32.142-7.021-41.727C564.81-61.993,558.731-63.932,552.5-63.926z"/>
</g>
<g>
	<path fill="#0FC6E9" d="M27.972,19.794c-0.343,0.127-0.71,0.25-1.141,0.373c-0.423,0.121-0.934,0.203-1.384,0.259
		c-0.24,0.03-0.4,0.254-0.352,0.491c0.271,1.317,0.865,3.456,1.934,4.935c0.499,0.69,0.99,1.204,1.497,1.569v-7.239
		C28.526,19.895,28.242,19.694,27.972,19.794z"/>
	<path fill="#0FC6E9" d="M42.253,18.403c0.007-0.154,0.012-0.309,0.012-0.464c0-5.673-4.603-10.272-10.281-10.272
		c-4.112,0-7.659,2.413-9.303,5.898c-0.914-0.651-2.042-1.037-3.264-1.037c-3.04,0-5.503,2.382-5.503,5.32
		c0,0.437,0.056,0.86,0.158,1.265C10.604,19.851,8,22.986,8,26.744c0,4.306,3.42,7.589,7.639,7.589H40.69
		c4.037,0,7.311-3.447,7.311-7.956C48,22.468,45.539,19.203,42.253,18.403z M31.475,26.729c-1.084,1.715-2.24,2.6-2.718,2.918
		c-0.14,0.093-0.313,0.094-0.454,0.003c-0.491-0.315-1.688-1.201-2.776-2.921c-1.528-2.416-2.149-6.084-2.324-7.336
		c-0.033-0.236,0.139-0.446,0.377-0.466c0.533-0.046,1.453-0.154,2.151-0.381c1.129-0.367,1.585-0.741,2.559-1.217
		c0.145-0.07,0.312-0.046,0.439,0.053c0.58,0.452,1.434,0.811,2.521,1.165c0.695,0.226,1.594,0.333,2.115,0.38
		c0.236,0.021,0.408,0.228,0.377,0.462C33.584,20.634,33.006,24.31,31.475,26.729z"/>
</g>
<g>
	<path fill="#62CE00" d="M62.101,32.1c0.031,0.031,0.031,0.062,0.062,0.094c0.188,1.812,3.125,2.375,3.687,0.281
		c0-0.031,0-0.094,0-0.094s0,0,0-0.031c0.094-0.156,0.156-0.344,0.25-0.5c0.281-0.531,0.594-1.031,0.938-1.531
		c0.875-1.344,1.843-2.656,2.875-3.874c2.499-3.031,5.374-5.905,8.842-7.749c2.125-1.125,0.25-4.374-1.906-3.249
		c-3.812,2.031-7.061,5.28-9.81,8.623c-0.938,1.156-2.093,2.468-3.062,3.874c-1.125-1.656-2.5-3.156-4.093-4.437
		c-0.781-0.625-1.875-0.75-2.656,0c-0.656,0.656-0.781,2.031,0,2.656C59.289,27.82,60.914,29.757,62.101,32.1z"/>
</g>
<g>
	<path fill="#FFFFFF" d="M534.385,50.979L514.869,43.3c-1.6-0.64-3.359-0.56-4.959,0.08c-1.601,0.72-2.799,1.919-3.438,3.519
		c-1.279,3.279,0.319,7.038,3.6,8.318l19.516,7.678c0.799,0.32,1.601,0.48,2.318,0.48c2.561,0,5.039-1.52,5.999-4.079
		c0.64-1.6,0.56-3.359-0.079-4.959C537.184,52.898,535.984,51.618,534.385,50.979z M507.991,47.539
		c0.479-1.2,1.358-2.159,2.56-2.639c0.641-0.24,1.279-0.4,1.92-0.4c0.56,0,1.199,0.08,1.76,0.32l9.037,3.519l-3.52,9.038
		l-9.037-3.52C508.23,52.818,507.031,50.019,507.991,47.539z M536.464,58.816c-0.96,2.479-3.759,3.679-6.317,2.719l-9.038-3.519
		l3.52-9.038l9.117,3.519c1.2,0.48,2.16,1.359,2.64,2.559C536.865,56.256,536.943,57.617,536.464,58.816z"/>
	<path fill="#FFFFFF" d="M563.497,40.421c-2.8-2.159-6.878-1.6-9.038,1.2l-3.119,4.159c0-0.561-0.08-1.2-0.32-1.76l-6.478-19.915
		c-1.12-3.359-4.719-5.199-8.158-4.159c-3.357,1.12-5.198,4.719-4.159,8.158l3.279,9.997l0,0l0,0l3.279,9.998
		c0.561,1.6,1.68,2.959,3.198,3.759c0.96,0.48,1.921,0.72,2.959,0.72c0.48,0,0.96-0.08,1.439-0.16l-4.639,6.079
		c-1.039,1.359-1.521,3.039-1.279,4.799c0.24,1.679,1.119,3.199,2.479,4.239c1.119,0.879,2.479,1.359,3.919,1.359
		c0.319,0,0.56,0,0.879-0.08c1.68-0.24,3.198-1.12,4.239-2.479l6.398-8.318l0,0l0,0l6.396-8.318
		C566.855,46.66,566.296,42.581,563.497,40.421z M536.863,21.466c0.479-0.16,0.961-0.24,1.52-0.24c2.08,0,3.92,1.28,4.641,3.359
		l3.039,9.198l-9.198,2.959l-3.119-9.198C532.945,24.985,534.305,22.266,536.863,21.466z M542.702,50.338
		c-1.12-0.56-1.999-1.6-2.399-2.799l-3.039-9.197l9.197-2.959L549.5,44.5c0.801,2.56-0.56,5.279-3.119,6.079
		C545.102,50.979,543.822,50.898,542.702,50.338z M550.7,65.135c-0.8,1.04-1.919,1.68-3.199,1.839c-1.28,0.16-2.56-0.16-3.599-0.959
		c-1.04-0.8-1.681-1.919-1.84-3.199c-0.16-1.28,0.159-2.56,0.96-3.599l5.918-7.678l7.679,5.918L550.7,65.135z M563.417,48.499
		l-5.919,7.678l-7.678-5.919l5.918-7.678c0.961-1.28,2.399-1.919,3.84-1.919c1.039,0,2.079,0.32,2.959,0.959
		C564.617,43.3,565.017,46.339,563.417,48.499z"/>
</g>
<g>
	<path fill="#FFFFFF" d="M528.462,94.863V92.35h1.539v-1.723h-1.539v-5.514h-11.05v5.514h-1.744v1.723h1.744v2.444
		c-3.852,1.685-6.568,5.686-6.568,10.345v13.943c0,2.477,0.764,4.836,2.169,6.775c-1.289,0.634-2.169,1.995-2.169,3.576
		c0,0.601,0.13,1.188,0.378,1.723c-0.248,0.535-0.378,1.122-0.378,1.723c0,0.731,0.199,1.446,0.568,2.068
		c-0.369,0.622-0.568,1.336-0.568,2.067s0.199,1.446,0.568,2.068c-0.369,0.622-0.568,1.336-0.568,2.068
		c0,2.185,1.701,3.962,3.794,3.962h16.449c2.092,0,3.794-1.777,3.794-3.962c0-0.731-0.199-1.446-0.568-2.068
		c0.369-0.622,0.568-1.336,0.568-2.068c0-0.731-0.199-1.446-0.568-2.067c0.369-0.622,0.568-1.336,0.568-2.068
		c0-0.601-0.13-1.188-0.378-1.723c0.248-0.535,0.378-1.122,0.378-1.723c0-1.581-0.881-2.943-2.169-3.576
		c1.406-1.939,2.169-4.299,2.169-6.775V105.14C534.881,100.542,532.234,96.586,528.462,94.863z M526.739,90.627h-1.52v-3.791h1.52
		V90.627z M521.774,90.627v-3.791h1.723v3.791H521.774z M519.135,86.837h0.916v3.791h-0.916V86.837z M519.135,92.351h7.604v1.914
		c-0.802-0.204-1.633-0.324-2.493-0.324h-2.77c-0.807,0-1.587,0.103-2.343,0.283L519.135,92.351L519.135,92.351z M521.479,95.664
		h2.769c4.004,0,7.396,2.823,8.518,6.695H512.96C514.08,98.486,517.475,95.664,521.479,95.664z M533.157,105.141v1.354h-20.59
		v-1.354c0-0.358,0.021-0.711,0.059-1.059h20.473C533.135,104.429,533.157,104.782,533.157,105.141z M512.567,110.628v-2.412h20.59
		v2.412H512.567z M533.157,112.352v2.412h-20.59v-2.412H533.157z M533.157,129.435c0,0.452-0.125,0.889-0.36,1.263
		c-0.18,0.281-0.18,0.639,0,0.92c0.235,0.374,0.36,0.811,0.36,1.263c0,0.553-0.197,1.088-0.557,1.509
		c-0.273,0.322-0.273,0.795,0,1.117c0.358,0.42,0.557,0.957,0.557,1.509c0,0.428-0.121,0.844-0.341,1.206h-8.457v1.723h8.457
		c0.219,0.362,0.34,0.778,0.34,1.206c0,1.235-0.93,2.24-2.07,2.24h-16.448c-1.142,0-2.069-1.005-2.069-2.24
		c0-0.552,0.196-1.088,0.556-1.508c0.273-0.322,0.273-0.795,0-1.117c-0.358-0.42-0.556-0.957-0.556-1.508
		c0-0.553,0.196-1.089,0.556-1.509c0.273-0.322,0.273-0.796,0-1.117c-0.358-0.42-0.556-0.957-0.556-1.509
		c0-0.3,0.059-0.589,0.165-0.862h5.543v-1.723h-5.543c-0.106-0.272-0.165-0.562-0.165-0.861c0-1.203,0.872-2.181,1.987-2.228h16.612
		C532.284,127.254,533.157,128.231,533.157,129.435z M530.799,125.484h-15.874c-1.518-1.753-2.356-4.008-2.356-6.401v-2.596h20.59
		v2.596C533.157,121.476,532.316,123.731,530.799,125.484z"/>
	<path fill="#FFFFFF" d="M535.854,112.492l4.849,32.622h17.579l4.366-32.622H535.854L535.854,112.492z M560.677,114.215
		l-1.59,11.879H544.44l-1.767-11.879H560.677z M540.934,114.215l1.767,11.879h-3.082l-1.768-11.879H540.934z M539.873,127.817h3.083
		l2.313,15.574h-3.082L539.873,127.817z M556.771,143.391h-9.76l-2.314-15.574h14.158L556.771,143.391z"/>
</g>
<g>
	<path fill="#FFFFFF" d="M565.303,203.321l3.285-3.282c0.586-0.583,0.908-1.361,0.908-2.188s-0.322-1.604-0.905-2.189
		c-1.207-1.208-3.171-1.208-4.378-0.002l-3.284,3.28c-1.208,1.206-1.209,3.17-0.003,4.379c0.604,0.604,1.397,0.906,2.189,0.906
		C563.908,204.224,564.7,203.924,565.303,203.321z M565.271,196.719c0.622-0.622,1.636-0.623,2.26,0.001
		c0.622,0.623,0.621,1.636-0.002,2.258l-1.111,1.111l-2.258-2.26L565.271,196.719z M561.986,202.259
		c-0.623-0.624-0.622-1.638,0-2.26l1.112-1.11l2.259,2.261l-1.113,1.111C563.622,202.882,562.609,202.882,561.986,202.259z"/>
	<path fill="#FFFFFF" d="M563.168,190.812c0.001,0,0.002,0,0.002,0c0.826,0,1.604-0.321,2.188-0.905
		c0.584-0.584,0.905-1.362,0.906-2.188c0-0.827-0.32-1.604-0.904-2.19l-3.281-3.285c-1.207-1.207-3.17-1.207-4.378-0.001
		c-0.585,0.583-0.907,1.361-0.907,2.188c-0.001,0.827,0.321,1.604,0.904,2.189l3.28,3.284
		C561.564,190.489,562.342,190.812,563.168,190.812z M564.768,187.718c0,0.426-0.166,0.827-0.468,1.129
		c-0.301,0.302-0.702,0.467-1.129,0.467h-0.001c-0.427,0-0.827-0.167-1.129-0.469l-1.111-1.112l2.26-2.258l1.111,1.113
		C564.602,186.889,564.768,187.291,564.768,187.718z M558.293,184.431c0-0.426,0.166-0.827,0.468-1.129
		c0.312-0.312,0.722-0.467,1.13-0.467s0.818,0.156,1.13,0.467l1.11,1.112l-2.26,2.258l-1.111-1.113
		C558.458,185.259,558.292,184.857,558.293,184.431z"/>
	<path fill="#FFFFFF" d="M566.74,167.232c1.031-0.258,1.899-0.901,2.447-1.812c0.546-0.911,0.704-1.98,0.446-3.011
		c-0.53-2.127-2.689-3.424-4.821-2.894c-2.128,0.532-3.427,2.695-2.896,4.822c0.258,1.031,0.902,1.899,1.812,2.446
		c0.625,0.376,1.326,0.569,2.039,0.569C566.094,167.353,566.418,167.312,566.74,167.232z M565.176,160.969
		c0.201-0.05,0.402-0.075,0.602-0.075c0.859,0,1.656,0.455,2.105,1.181l-4.567,1.141
		C563.383,162.169,564.105,161.236,565.176,160.969z M563.676,164.67l4.564-1.139c-0.023,0.391-0.131,0.774-0.338,1.12
		c-0.342,0.568-0.883,0.969-1.525,1.13c-0.642,0.159-1.309,0.061-1.877-0.28C564.155,165.292,563.881,165.003,563.676,164.67z"/>
	<path fill="#FFFFFF" d="M562.13,168.952c-1.05-0.163-2.101,0.098-2.956,0.728c-1.766,1.299-2.146,3.793-0.848,5.561
		c0.777,1.059,1.986,1.62,3.209,1.62c0.817,0,1.643-0.251,2.351-0.771c0.856-0.629,1.415-1.555,1.576-2.604
		c0.16-1.05-0.099-2.101-0.728-2.955C564.105,169.672,563.18,169.113,562.13,168.952z M561.525,170.405
		c0.125,0,0.252,0.01,0.379,0.028c0.653,0.101,1.229,0.45,1.623,0.983c0.393,0.533,0.553,1.188,0.453,1.842
		c-0.062,0.398-0.225,0.76-0.455,1.077l-2.791-3.798C560.988,170.451,561.254,170.405,561.525,170.405z M559.532,174.353
		c-0.653-0.89-0.614-2.069,0.001-2.919l2.785,3.788C561.324,175.556,560.188,175.242,559.532,174.353z"/>
	<path fill="#FFFFFF" d="M566.955,209.011c-1.05-0.162-2.1,0.098-2.955,0.727c-1.768,1.299-2.148,3.793-0.85,5.561
		c0.63,0.855,1.555,1.415,2.604,1.575c0.203,0.032,0.405,0.047,0.607,0.047c0.842,0,1.656-0.266,2.348-0.774
		c1.769-1.299,2.147-3.793,0.85-5.561C568.931,209.73,568.006,209.17,566.955,209.011z M566.35,210.462
		c0.127,0,0.253,0.01,0.379,0.028c0.655,0.1,1.232,0.449,1.625,0.983c0.652,0.889,0.613,2.068-0.002,2.917l-2.793-3.797
		C565.814,210.509,566.08,210.462,566.35,210.462z M565.981,215.393c-0.655-0.101-1.231-0.449-1.623-0.983
		c-0.394-0.533-0.555-1.188-0.453-1.842c0.061-0.398,0.224-0.761,0.454-1.077l2.787,3.791
		C566.775,215.407,566.38,215.453,565.981,215.393z"/>
	<path fill="#FFFFFF" d="M524.574,179.711c0.146,0.146,0.338,0.22,0.528,0.22c0.192,0,0.385-0.074,0.529-0.22l0.485-0.484
		l0.484,0.484c0.146,0.146,0.337,0.22,0.529,0.22c0.191,0,0.383-0.074,0.529-0.22c0.293-0.292,0.293-0.766,0-1.059l-0.484-0.484
		l0.484-0.484c0.293-0.293,0.293-0.766,0-1.059s-0.768-0.293-1.06,0l-0.484,0.485l-0.485-0.485c-0.292-0.293-0.766-0.293-1.059,0
		s-0.293,0.766,0,1.059l0.483,0.484l-0.483,0.484C524.282,178.945,524.282,179.419,524.574,179.711z"/>
	<path fill="#FFFFFF" d="M525.059,186.074l-0.483,0.485c-0.293,0.293-0.293,0.766,0,1.059c0.146,0.146,0.338,0.22,0.528,0.22
		c0.192,0,0.385-0.074,0.529-0.22l0.485-0.484l0.484,0.484c0.146,0.146,0.337,0.22,0.529,0.22c0.191,0,0.383-0.074,0.529-0.22
		c0.293-0.293,0.293-0.766,0-1.059l-0.484-0.485l0.484-0.484c0.293-0.293,0.293-0.766,0-1.059c-0.293-0.293-0.768-0.293-1.06,0
		l-0.484,0.484l-0.485-0.484c-0.292-0.293-0.766-0.293-1.059,0c-0.293,0.292-0.293,0.766,0,1.059L525.059,186.074z"/>
	<path fill="#FFFFFF" d="M527.178,193.981l0.484-0.485c0.293-0.293,0.293-0.766,0-1.059s-0.768-0.293-1.06,0l-0.484,0.484
		l-0.485-0.484c-0.292-0.293-0.766-0.293-1.059,0s-0.293,0.766,0,1.059l0.483,0.485l-0.483,0.484c-0.293,0.293-0.293,0.766,0,1.059
		c0.146,0.146,0.338,0.22,0.528,0.22c0.192,0,0.385-0.074,0.529-0.22l0.485-0.484l0.484,0.484c0.146,0.146,0.337,0.22,0.529,0.22
		c0.191,0,0.383-0.074,0.529-0.22c0.293-0.293,0.293-0.766,0-1.059L527.178,193.981z"/>
	<path fill="#FFFFFF" d="M527.178,201.887l0.484-0.484c0.293-0.293,0.293-0.766,0-1.059c-0.293-0.293-0.768-0.293-1.06,0
		l-0.484,0.484l-0.485-0.484c-0.292-0.293-0.766-0.293-1.059,0c-0.293,0.293-0.293,0.766,0,1.059l0.483,0.484l-0.483,0.485
		c-0.293,0.293-0.293,0.766,0,1.059c0.146,0.146,0.338,0.22,0.528,0.22c0.192,0,0.385-0.074,0.529-0.22l0.485-0.484l0.484,0.484
		c0.146,0.146,0.337,0.22,0.529,0.22c0.191,0,0.383-0.074,0.529-0.22c0.293-0.293,0.293-0.766,0-1.059L527.178,201.887z"/>
	<path fill="#FFFFFF" d="M552.87,166.099h-11.511v-1.519c0-0.414-0.335-0.749-0.748-0.749h-4.304v-0.362
		c0-2.39-1.942-4.333-4.334-4.333c-2.389,0-4.333,1.944-4.333,4.333v0.362h-4.302c-0.414,0-0.75,0.335-0.75,0.749v1.519h-11.51
		c-0.414,0-0.749,0.335-0.749,0.749v51.462c0,0.414,0.335,0.749,0.749,0.749h41.79c0.413,0,0.749-0.335,0.749-0.749v-51.462
		C553.619,166.435,553.283,166.099,552.87,166.099z M524.088,165.329h4.303c0.414,0,0.749-0.334,0.749-0.749v-1.111
		c0-1.562,1.272-2.835,2.835-2.835c1.563,0,2.836,1.272,2.836,2.835v1.111c0,0.415,0.337,0.749,0.748,0.749h4.304v3.693h-15.773
		L524.088,165.329L524.088,165.329z M523.34,170.52h17.271c0.413,0,0.748-0.334,0.748-0.749v-2.173h4.967v43.484h-28.701v-43.485
		h4.965v2.173C522.59,170.186,522.926,170.52,523.34,170.52z M552.121,217.562h-40.292v-49.965h4.298v44.233
		c0,0.415,0.335,0.749,0.748,0.749h30.199c0.414,0,0.75-0.334,0.75-0.749v-44.233h4.296L552.121,217.562L552.121,217.562z"/>
	<circle fill="#FFFFFF" cx="531.975" cy="163.302" r="0.949"/>
	<path fill="#FFFFFF" d="M521.443,174.265v31.358c0,0.414,0.336,0.749,0.75,0.749h19.85c0.414,0,0.749-0.335,0.749-0.749v-31.358
		c0-0.414-0.335-0.749-0.749-0.749h-19.85C521.779,173.516,521.443,173.851,521.443,174.265z M522.942,190.863h6.215v6.583h-6.215
		V190.863z M530.655,190.863h10.639v6.583h-10.639V190.863z M541.294,189.365h-10.639v-6.582h10.639V189.365z M529.157,189.365
		h-6.215v-6.582h6.215V189.365z M522.942,198.944h6.215v5.93h-6.215V198.944z M530.655,204.874v-5.93h10.639v5.93H530.655z
		 M541.294,181.285h-10.639v-6.271h10.639V181.285z M529.157,175.014v6.271h-6.215v-6.271H529.157z"/>
</g>
<g>
	<path fill="#62CE00" d="M16.794,46.63h17.454c1.233,0,2.353,0.503,3.165,1.314c0.812,0.812,1.321,1.938,1.321,3.172V70.95
		c2.252,0.892,3.292,2.716,4.311,4.513c0.697,1.234,1.395,2.454,2.474,3.098c1.093,0.65,2.052,1.395,2.749,2.313
		c0.744,0.985,1.174,2.139,1.126,3.527c-0.174,5.096,0.248,7.442,0.979,11.513c0.234,1.314,0.503,2.796,0.785,4.56
		c0.402,1.08,0.04,2.058-0.832,2.917c-0.63,0.616-1.556,1.16-2.628,1.616c-1.033,0.436-2.199,0.791-3.373,1.046
		c-3.4,0.737-7.047,0.583-8.04-0.972c-0.054-0.081-0.094-0.161-0.121-0.248c-0.081-0.222-0.181-0.503-0.309-0.818l-0.342-0.852
		c-1.267-1.052-2.568-2.186-3.748-3.446c-1.126-1.201-2.126-2.508-2.85-3.936c-1.14-0.161-1.75-0.054-2.829,0.141
		c-0.463,0.087-1.006,0.181-1.522,0.262c-1.609,0.241-2.796-0.584-3.439-1.75c-0.262-0.49-0.429-1.039-0.483-1.596
		c-0.047-0.57,0.013-1.153,0.208-1.67l0.047-0.107c0.04-0.101,0.087-0.201,0.134-0.295h-4.237c-1.234,0-2.36-0.503-3.172-1.314
		c-0.811-0.812-1.314-1.938-1.314-3.171V51.116c0-1.234,0.503-2.36,1.314-3.172C14.434,47.133,15.56,46.63,16.794,46.63z
		 M38.733,83.026l2.735,2.735c0.483,0.483,0.483,1.268,0,1.757C40.985,88,40.2,88.007,39.711,87.524l-2.722-2.729
		c-0.047-0.027-0.087-0.061-0.127-0.094c-1.395-1.187-2.87-2.36-4.425-3.527c-1.556-1.173-3.212-2.36-4.948-3.547
		c-0.832-0.577-1.556-0.644-2.085-0.423c-0.235,0.101-0.442,0.262-0.604,0.463c-0.167,0.214-0.288,0.463-0.349,0.73
		c-0.134,0.59,0.033,1.288,0.624,1.857c1.569,1.522,2.95,2.937,4.231,4.426c1.167,1.354,2.246,2.775,3.319,4.392
		c0.235,0.174,0.402,0.436,0.449,0.745c0.034,0.114,0.054,0.228,0.054,0.355c0,0.047,0,0.094-0.006,0.141
		c0.167,1.676,0.456,2.95,0.958,4.043c0.543,1.187,1.361,2.232,2.595,3.433c0.449,0.436,0.456,1.153,0.02,1.603
		c-0.436,0.449-1.153,0.456-1.596,0.02c-1.435-1.395-2.407-2.642-3.078-4.11c-0.536-1.167-0.865-2.434-1.073-3.989l-7,0.054
		c-0.503,0-0.812,0.228-0.945,0.529l-0.02,0.061c-0.081,0.208-0.107,0.442-0.087,0.677c0.027,0.248,0.101,0.496,0.221,0.717
		c0.208,0.389,0.597,0.664,1.12,0.583c0.664-0.101,1.086-0.174,1.455-0.242c1.516-0.275,2.28-0.409,4.205-0.047
		c0.349,0.067,0.664,0.302,0.818,0.651c0.624,1.401,1.589,2.688,2.702,3.875c1.126,1.207,2.427,2.327,3.701,3.379
		c0.174,0.121,0.308,0.288,0.396,0.496l0.456,1.14l0.282,0.751c0.583,0.597,3.098,0.436,5.599-0.107
		c1.059-0.228,2.092-0.543,2.97-0.912c0.818-0.342,1.502-0.738,1.917-1.147c0.222-0.214,0.335-0.402,0.295-0.536
		c-0.04-0.087-0.073-0.181-0.087-0.288c-0.295-1.844-0.563-3.333-0.798-4.633c-0.758-4.224-1.193-6.658-1.012-11.989
		c0.026-0.818-0.228-1.501-0.671-2.085c-0.496-0.657-1.24-1.22-2.105-1.743c-1.596-0.945-2.434-2.427-3.285-3.916
		c-0.65-1.146-1.308-2.307-2.34-3.057v9.502H38.733z M36.46,81.43v-9.662V51.116c0-0.61-0.248-1.167-0.65-1.562
		c-0.402-0.402-0.952-0.65-1.562-0.65H16.794c-0.61,0-1.167,0.248-1.562,0.65c-0.402,0.396-0.65,0.952-0.65,1.562v35.162
		c0,0.61,0.248,1.167,0.65,1.562c0.396,0.402,0.952,0.651,1.562,0.651h12.659c-0.604-0.812-1.22-1.583-1.871-2.333l-0.026-0.034
		c-0.55,0.469-1.261,0.758-2.039,0.758c-0.865,0-1.649-0.355-2.219-0.925c-0.577-0.57-0.932-1.361-0.932-2.226
		c0-0.832,0.322-1.583,0.845-2.146c-0.979-1.126-1.234-2.48-0.972-3.674c0.141-0.61,0.416-1.18,0.798-1.656
		c0.375-0.462,0.858-0.845,1.421-1.1v-1.368h-1.482c-0.517,0-0.932-0.422-0.932-0.938c0-0.517,0.416-0.932,0.932-0.932h1.482v-1.482
		c0-0.516,0.422-0.939,0.938-0.939s0.932,0.423,0.932,0.939v1.482h1.481c0.517,0,0.939,0.416,0.939,0.932s-0.422,0.938-0.939,0.938
		h-1.481v1.053c0.771,0.06,1.603,0.342,2.447,0.925c1.736,1.193,3.413,2.394,5.022,3.601C34.717,80.056,35.602,80.746,36.46,81.43z
		 M26.557,84.997c-0.711-0.778-1.469-1.549-2.273-2.347c-0.249,0.288-0.402,0.664-0.402,1.08c0,0.449,0.181,0.858,0.482,1.153
		c0.295,0.302,0.704,0.482,1.153,0.482C25.913,85.366,26.275,85.225,26.557,84.997z M30.633,64.647c0.818,0,1.475,0.657,1.475,1.475
		s-0.657,1.475-1.475,1.475c-0.812,0-1.475-0.657-1.475-1.475S29.822,64.647,30.633,64.647z M22.473,64.647
		c0.818,0,1.482,0.657,1.482,1.475s-0.664,1.475-1.482,1.475c-0.812,0-1.475-0.657-1.475-1.475S21.662,64.647,22.473,64.647z
		 M17.411,54.69c-0.409,0-0.744-0.335-0.744-0.744c0.007-0.416,0.342-0.744,0.751-0.744l2.89,0.02c0.362,0,0.664,0.261,0.731,0.604
		l1.629,8.676l8.469,0.013c0.416,0,0.751,0.335,0.751,0.744c0,0.416-0.335,0.745-0.751,0.745l-9.045-0.014
		c-0.369,0.021-0.704-0.234-0.778-0.603l-1.629-8.684L17.411,54.69z M23.304,60.778L22.5,56.5c-0.067-0.355,0.167-0.704,0.529-0.771
		l0.121-0.007l8.502-0.006c0.322,0,0.59,0.228,0.65,0.53l0.503,1.877c0.081,0.315-0.074,0.637-0.349,0.771l-4.144,2.387
		c-0.1,0.061-0.214,0.087-0.329,0.087l-4.023,0.007C23.62,61.375,23.338,61.113,23.304,60.778z"/>
</g>
<path fill="#62CE00" d="M62.922,174.243c-2.896-9.362-10.492-16.355-20.336-18.771c-1.723-1.915-2.314-3.166-2.511-3.769
	c0.922-1.434,3.88-6.185,5.709-10.607h0.557c2.931,0,5.062-1.691,5.062-4.619c0-0.905-0.271-1.674-0.702-2.327
	c-0.24-9.148-6.39-18.413-16.565-18.413c-10.221,0-15.759,8.76-16.214,17.789c-0.73,0.755-1.192,1.741-1.192,2.951
	c0,2.248,1.261,3.755,3.166,4.339c1.637,2.852,5.083,6.143,12.196,6.605c0.36,0.568,0.965,0.965,1.686,0.965
	c1.125,0,2.039-0.915,2.039-2.039c0-1.127-0.915-2.039-2.039-2.039c-0.656,0-1.212,0.333-1.586,0.815
	c-2.624-0.175-4.637-0.778-6.203-1.586c-1.305-2.898-2.406-5.875-2.536-7.817c3.388-1.372,13.265-5.531,16.743-8.757
	c0,0,1.461,5.178,4.722,7.194c0.032,0.395,0.051,0.792,0.051,1.187c0,3.871-5.125,12.508-7.099,15.508
	c-0.152,0.233-0.217,0.517-0.178,0.794c0.131,0.938,0.815,2.953,3.868,6.117c-0.298,1.601-1.679,6.395-7.51,6.42
	c-5.847-0.028-7.595-4.801-8.025-6.458c0.076-0.018,0.145-0.048,0.224-0.064l-0.035-0.143c3.471-3.663,3.704-5.57,3.679-6.087
	c-0.007-0.185-0.058-0.365-0.15-0.526c-0.282-0.49-0.642-1.139-1.04-1.878c-1.106-0.27-2.136-0.605-3.118-0.979
	c0.854,1.684,1.591,3.021,1.944,3.642c-0.154,0.501-0.734,1.815-2.778,4.016c-9.811,2.656-17.249,9.679-19.491,18.588
	c-0.085,0.344-0.009,0.712,0.21,0.994c0.22,0.286,0.557,0.45,0.913,0.45h55.434c0.367,0,0.714-0.173,0.928-0.469
	C62.966,174.973,63.028,174.592,62.922,174.243z M34.138,118.046c8.741,0,13.205,7.672,14.099,14.235
	c-0.418-0.152-0.861-0.256-1.319-0.328c-1.224-5.877-5.607-11.172-12.775-11.172c-7.089,0-11.431,5.271-12.655,11.135
	c-0.384,0.044-0.76,0.109-1.12,0.21C21.203,125.714,25.164,118.046,34.138,118.046z M7.92,173.428
	c2.291-6.958,8.182-12.476,15.891-15.034c0.815,3.189,3.695,8.106,10.177,8.106c0.007,0,0.012,0,0.019,0h0.044
	c0.002,0,0.007,0,0.009,0h0.044c0.005,0,0.009-0.002,0.014-0.002c6.586-0.033,9.143-5.037,9.716-8.249
	c7.648,2.429,13.616,7.918,16.371,15.18H7.92V173.428z"/>
<g>
	<polygon fill="#62CE00" points="48.973,202.66 48.928,209.095 57.553,209.095 57.553,206.95 53.263,202.66 	"/>
	<path fill="#62CE00" d="M8.217,204.805h3.149h2.149h11.862c0.592,0,1.073-0.48,1.073-1.073c0-0.592-0.48-1.072-1.073-1.072H13.648
		l0.133-2.145h-2.147L11.5,202.66H8.217c-0.592,0-1.072,0.48-1.072,1.072C7.145,204.325,7.625,204.805,8.217,204.805z"/>
	<path fill="#62CE00" d="M64.685,207.158l-8.522-8.475c-0.199-0.202-0.472-0.313-0.755-0.313h-8.421l1.195-11.688
		c0.032-0.303-0.066-0.603-0.271-0.828c-0.204-0.225-0.493-0.354-0.795-0.354H13.58c-0.566,0-1.034,0.44-1.07,1.006l-0.607,9.719
		h-1.541c-0.592,0-1.072,0.48-1.072,1.072c0,0.592,0.48,1.073,1.072,1.073h1.405h2.149h11.46c0.592,0,1.073-0.48,1.073-1.073
		c0-0.592-0.48-1.072-1.073-1.072H14.052l0.537-8.58h31.338l-3.284,32.175h-0.105H31.261c-0.965-1.244-2.458-2.06-4.153-2.06
		c-1.694,0-3.185,0.815-4.15,2.06H12.576l0.403-6.435H10.83l-0.465,7.441c-0.02,0.296,0.086,0.585,0.29,0.802
		c0.204,0.216,0.485,0.337,0.781,0.337h10.508c-0.073,0.345-0.111,0.706-0.111,1.072c0,2.909,2.368,5.277,5.276,5.277
		c2.909,0,5.277-2.368,5.277-5.277c0-0.367-0.039-0.727-0.111-1.072h10.264h1.073h4.073c-0.073,0.345-0.111,0.706-0.111,1.072
		c0,2.909,2.368,5.277,5.276,5.277c2.908,0,5.277-2.368,5.277-5.277c0-0.367-0.039-0.727-0.112-1.072h3.791
		c0.525,0,0.974-0.382,1.057-0.899l2.124-12.975C65.043,207.75,64.929,207.403,64.685,207.158z M27.111,226.169
		c-1.727,0-3.132-1.405-3.132-3.132s1.405-3.132,3.132-3.132s3.132,1.405,3.132,3.132S28.835,226.169,27.111,226.169z
		 M52.851,226.169c-1.727,0-3.131-1.405-3.131-3.132s1.405-3.132,3.131-3.132c1.727,0,3.132,1.405,3.132,3.132
		S54.576,226.169,52.851,226.169z M60.895,219.82h-3.891c-0.965-1.244-2.458-2.06-4.153-2.06c-1.694,0-3.185,0.815-4.152,2.06h-3.9
		l2.029-19.887v0.582h8.138l7.816,7.773L60.895,219.82z"/>
	<path fill="#62CE00" d="M13.112,211.24h12.265c0.592,0,1.073-0.48,1.073-1.073c0-0.592-0.48-1.072-1.073-1.072h-12.13l0.133-2.145
		h-2.149l-0.133,2.145H6.072c-0.592,0-1.072,0.48-1.072,1.072s0.48,1.073,1.072,1.073h4.891H13.112z"/>
</g>
<g>
	<path fill="#62CE00" d="M65.035,253.945l-22.316-22.314c-0.423-0.424-1.172-0.424-1.593,0L22.02,250.734H11.186
		c-1.865,0-3.382,1.517-3.382,3.381v33.814c0,1.864,1.517,3.383,3.382,3.383h47.341c1.864,0,3.381-1.519,3.381-3.383v-5.843
		c1.31-0.467,2.255-1.707,2.255-3.174v-9.019c0-1.469-0.945-2.707-2.255-3.174v-5.844c0-0.632-0.185-1.218-0.489-1.725l3.616-3.616
		C65.475,255.102,65.475,254.387,65.035,253.945z M58.527,289.059H11.186c-0.621,0-1.127-0.508-1.127-1.127v-33.815
		c0-0.622,0.507-1.127,1.127-1.127h8.58l-4.506,4.509h-2.946v2.255h46.214c0.62,0,1.127,0.504,1.127,1.127v5.636h-12.4
		c-1.865,0-3.382,1.518-3.382,3.383v9.018c0,1.863,1.517,3.381,3.382,3.381h12.398v5.637
		C59.654,288.551,59.147,289.059,58.527,289.059z M53.635,257.375l-0.124,0.122H42.396c-0.43-0.636-0.906-1.242-1.449-1.783
		c-2.297-2.295-5.347-3.56-8.593-3.56c-0.832,0-1.648,0.088-2.446,0.25l9.375-9.376c1.563,0.979,3.705,0.979,5.267,0l9.081,9.082
		C52.636,253.717,52.636,255.771,53.635,257.375z M25.358,257.311c1.869-1.871,4.355-2.898,6.998-2.898s5.129,1.029,6.998,2.9
		c0.057,0.058,0.092,0.131,0.146,0.188H25.191C25.252,257.436,25.3,257.369,25.358,257.311z M61.908,278.914
		c0,0.619-0.507,1.127-1.127,1.127h-1.127H47.255c-0.62,0-1.127-0.508-1.127-1.127v-9.018c0-0.621,0.507-1.127,1.127-1.127h12.398
		h1.127c0.62,0,1.127,0.506,1.127,1.127L61.908,278.914L61.908,278.914z M59.677,257.711c-0.361-0.131-0.744-0.214-1.15-0.214
		h-2.268c0-0.011,0.007-0.021,0.007-0.031c0-0.298-0.12-0.586-0.329-0.798c-1.062-1.062-1.062-2.791,0-3.854
		c0.439-0.439,0.439-1.154,0-1.594l-10.494-10.495c-0.424-0.424-1.172-0.424-1.594,0c-1.03,1.031-2.822,1.031-3.853,0
		c-0.212-0.212-0.499-0.328-0.798-0.328c-0.3,0-0.586,0.119-0.798,0.328l-16.766,16.771h-3.19l23.477-23.478l20.722,20.723
		L59.677,257.711z"/>
	<circle fill="#62CE00" cx="50.767" cy="274.837" r="2.949"/>
</g>
<g>
	<g>
		<path fill="#FFFFFF" d="M123.923-168.216c0,0.117,0,0.235,0,0.353c0,4.709,0,9.418-0.001,14.128c0,0.231,0.011,0.465-0.021,0.693
			c-0.047,0.344-0.15,0.671-0.313,0.987c-0.259,0.503-0.678,0.815-1.177,1c-0.276,0.102-0.6,0.101-0.901,0.1
			c-0.454-0.001-0.883-0.106-1.252-0.403c-0.338-0.271-0.591-0.597-0.738-1.004c-0.174-0.479-0.244-0.972-0.243-1.482
			c0.003-6.504,0.001-13.008,0.005-19.512c0-0.219,0.048-0.438,0.074-0.657c0.007-0.064,0.02-0.128,0.026-0.192
			c0.093-0.819,0.507-1.43,1.174-1.906c0.291-0.208,0.626-0.29,0.931-0.45c0.046-0.024,0.107-0.024,0.161-0.024
			c0.398-0.002,0.797-0.022,1.193,0.007c0.191,0.014,0.382,0.107,0.562,0.19c0.438,0.203,0.815,0.488,1.088,0.894
			c0.351,0.52,0.699,1.04,1.046,1.561c0.417,0.627,0.834,1.253,1.247,1.882c0.313,0.478,0.616,0.961,0.927,1.439
			c0.287,0.44,0.58,0.877,0.868,1.317c0.394,0.598,0.786,1.198,1.179,1.797c0.339,0.517,0.678,1.034,1.016,1.551
			c0.486,0.744,0.969,1.489,1.458,2.23c0.489,0.741,0.991,1.476,1.48,2.218c0.319,0.482,0.625,0.973,0.94,1.458
			c0.207,0.316,0.421,0.627,0.631,0.941c0.022-0.005,0.044-0.011,0.066-0.017c0.002-0.115,0.007-0.23,0.007-0.345
			c0-4.672,0-9.345,0-14.017c0-0.185-0.012-0.371,0.003-0.555c0.016-0.19,0.053-0.38,0.089-0.568
			c0.036-0.188,0.071-0.376,0.126-0.559c0.192-0.642,0.589-1.085,1.229-1.328c0.188-0.072,0.366-0.104,0.557-0.109
			c0.203-0.005,0.407-0.01,0.61,0.002c0.689,0.042,1.195,0.389,1.556,0.963c0.21,0.336,0.287,0.711,0.355,1.101
			c0.127,0.719,0.067,1.438,0.068,2.154c0.008,6.125,0.006,12.25,0.001,18.375c0,0.401-0.082,0.795-0.169,1.19
			c-0.069,0.31-0.194,0.583-0.353,0.85c-0.239,0.4-0.589,0.675-1.017,0.833c-0.554,0.205-1.128,0.212-1.713,0.142
			c-0.229-0.027-0.458-0.059-0.665-0.143c-0.267-0.109-0.536-0.242-0.763-0.418c-0.521-0.402-0.938-0.904-1.301-1.454
			c-0.209-0.317-0.446-0.615-0.658-0.931c-0.246-0.369-0.476-0.748-0.716-1.12c-0.232-0.36-0.47-0.716-0.703-1.076
			c-0.414-0.64-0.827-1.281-1.24-1.922c-0.447-0.693-0.893-1.387-1.341-2.08c-0.369-0.57-0.741-1.138-1.112-1.707
			c-0.416-0.639-0.834-1.276-1.248-1.917c-0.516-0.799-1.026-1.602-1.542-2.401c-0.271-0.419-0.55-0.833-0.825-1.25
			c-0.145-0.22-0.287-0.442-0.435-0.66c-0.044-0.065-0.101-0.12-0.152-0.18C123.976-168.236,123.949-168.226,123.923-168.216z"/>
		<path fill="#FFFFFF" d="M-29.793-163.874c0-3.228,0-6.456-0.001-9.685c0-0.502,0.124-0.976,0.344-1.419
			c0.273-0.547,0.723-0.878,1.323-1.033c0.503-0.129,1.007-0.185,1.524-0.184c2.386,0.003,4.773-0.004,7.159,0.006
			c0.523,0.002,1.046,0.056,1.569,0.098c0.283,0.022,0.567,0.058,0.846,0.11c0.276,0.051,0.547,0.13,0.82,0.199
			c0.3,0.076,0.601,0.148,0.899,0.233c0.544,0.155,1.044,0.412,1.526,0.702c0.475,0.285,0.915,0.621,1.328,0.99
			c0.667,0.597,1.249,1.269,1.732,2.024c0.268,0.418,0.502,0.853,0.715,1.302c0.269,0.568,0.493,1.153,0.659,1.755
			c0.11,0.401,0.25,0.797,0.285,1.222c0.026,0.314,0.124,0.624,0.19,0.935c0.006,0.027,0.011,0.055,0.013,0.082
			c0.041,0.56,0.103,1.12,0.116,1.681c0.02,0.813,0.006,1.627,0.001,2.442c-0.001,0.156-0.024,0.312-0.04,0.469
			c-0.021,0.219-0.042,0.439-0.07,0.658c-0.02,0.154-0.052,0.306-0.08,0.458c-0.005,0.027-0.016,0.053-0.02,0.081
			c-0.044,0.317-0.076,0.638-0.135,0.953c-0.046,0.249-0.125,0.493-0.192,0.738c-0.046,0.168-0.096,0.334-0.142,0.502
			c-0.16,0.588-0.402,1.144-0.663,1.694c-0.234,0.494-0.502,0.965-0.816,1.411c-0.342,0.484-0.722,0.935-1.142,1.353
			c-0.33,0.327-0.672,0.636-1.054,0.904c-0.512,0.36-1.038,0.688-1.623,0.923c-0.312,0.125-0.633,0.223-0.943,0.344
			c-0.378,0.147-0.774,0.211-1.162,0.297c-0.455,0.102-0.929,0.117-1.394,0.17c-1.622,0.187-3.25,0.065-4.874,0.089
			c-1.276,0.019-2.553,0.012-3.83-0.001c-0.357-0.004-0.727-0.025-1.068-0.121c-0.555-0.156-1.08-0.405-1.387-0.937
			c-0.121-0.208-0.242-0.441-0.271-0.674c-0.05-0.399-0.154-0.788-0.152-1.2C-29.787-157.492-29.793-160.683-29.793-163.874z
			 M-24.752-155.3c0.092,0,0.192,0,0.292,0c1.42-0.002,2.841,0.026,4.26-0.073c0.424-0.03,0.849-0.036,1.273-0.055
			c0.073-0.003,0.148-0.013,0.219-0.032c0.351-0.099,0.708-0.162,1.055-0.289c0.353-0.129,0.688-0.283,0.994-0.487
			c0.472-0.314,0.872-0.712,1.207-1.172c0.278-0.382,0.54-0.773,0.72-1.213c0.145-0.351,0.289-0.701,0.423-1.056
			c0.055-0.144,0.087-0.297,0.121-0.448c0.052-0.239,0.1-0.479,0.143-0.72c0.068-0.379,0.146-0.757,0.191-1.139
			c0.041-0.347,0.061-0.699,0.058-1.049c-0.009-0.96-0.028-1.921-0.06-2.881c-0.01-0.292-0.073-0.583-0.112-0.874
			c-0.002-0.019-0.005-0.037-0.01-0.055c-0.065-0.245-0.147-0.487-0.194-0.736c-0.074-0.396-0.204-0.771-0.36-1.138
			c-0.289-0.675-0.707-1.269-1.203-1.804c-0.285-0.308-0.611-0.569-0.978-0.788c-0.418-0.25-0.86-0.414-1.329-0.521
			c-0.222-0.051-0.455-0.062-0.669-0.132c-0.435-0.142-0.887-0.163-1.333-0.202c-0.597-0.052-1.199-0.053-1.8-0.059
			c-0.878-0.009-1.757-0.002-2.636-0.001c-0.099,0-0.197,0.01-0.288,0.015C-24.842-171.892-24.827-155.536-24.752-155.3z"/>
		<path fill="#FFFFFF" d="M36.122-163.848c0-0.555-0.003-1.109,0.002-1.664c0.001-0.119,0.034-0.237,0.056-0.354
			c0.013-0.072,0.04-0.143,0.049-0.215c0.047-0.365,0.077-0.733,0.141-1.095c0.046-0.26,0.137-0.512,0.205-0.768
			c0.045-0.167,0.1-0.332,0.127-0.502c0.055-0.353,0.201-0.673,0.329-1.001c0.157-0.405,0.297-0.819,0.49-1.207
			c0.219-0.438,0.468-0.865,0.743-1.271c0.269-0.396,0.568-0.775,0.887-1.133c0.674-0.757,1.437-1.415,2.328-1.91
			c0.405-0.225,0.81-0.453,1.231-0.643c0.352-0.158,0.728-0.264,1.094-0.391c0.197-0.068,0.393-0.14,0.592-0.198
			c0.176-0.052,0.355-0.096,0.536-0.128c0.298-0.052,0.599-0.092,0.898-0.136c0.063-0.009,0.134,0.002,0.192-0.02
			c0.421-0.156,0.86-0.107,1.292-0.113c0.758-0.009,1.516,0.001,2.274,0.011c0.137,0.002,0.272,0.038,0.408,0.061
			c0.073,0.013,0.145,0.044,0.217,0.045c0.53,0.007,1.039,0.149,1.552,0.256c0.344,0.072,0.672,0.222,1.013,0.318
			c0.588,0.167,1.138,0.422,1.675,0.706c0.564,0.298,1.105,0.64,1.596,1.046c0.407,0.337,0.797,0.702,1.152,1.093
			c0.347,0.382,0.661,0.799,0.952,1.227c0.352,0.517,0.662,1.062,0.89,1.649c0.134,0.346,0.3,0.679,0.422,1.029
			c0.107,0.309,0.171,0.633,0.256,0.949c0.04,0.149,0.092,0.295,0.126,0.446c0.065,0.286,0.122,0.574,0.179,0.862
			c0.02,0.099,0.027,0.201,0.043,0.301c0.026,0.172,0.062,0.344,0.081,0.518c0.024,0.229,0.041,0.458,0.049,0.688
			c0.023,0.636,0.056,1.273,0.056,1.91c0,0.571-0.021,1.145-0.066,1.714c-0.029,0.365-0.118,0.725-0.184,1.087
			c-0.049,0.271-0.099,0.542-0.157,0.812c-0.052,0.24-0.113,0.479-0.176,0.716c-0.056,0.21-0.114,0.421-0.184,0.627
			c-0.082,0.239-0.165,0.478-0.269,0.708c-0.215,0.478-0.416,0.965-0.673,1.419c-0.331,0.583-0.711,1.138-1.147,1.651
			c-0.195,0.23-0.391,0.462-0.608,0.67c-0.52,0.496-1.075,0.947-1.682,1.337c-0.626,0.402-1.293,0.723-1.984,0.988
			c-0.442,0.169-0.91,0.272-1.367,0.4c-0.256,0.072-0.515,0.136-0.772,0.201c-0.062,0.015-0.127,0.017-0.191,0.026
			c-0.19,0.029-0.38,0.066-0.571,0.086c-0.183,0.019-0.369,0.022-0.553,0.028c-0.655,0.021-1.31,0.053-1.965,0.055
			c-0.47,0.001-0.95,0.009-1.407-0.079c-0.349-0.067-0.715-0.034-1.054-0.185c-0.181-0.081-0.392-0.099-0.592-0.13
			c-0.39-0.061-0.747-0.228-1.121-0.337c-0.665-0.194-1.265-0.526-1.877-0.833c-0.257-0.129-0.494-0.304-0.729-0.474
			c-0.302-0.219-0.602-0.442-0.887-0.682c-0.445-0.375-0.844-0.797-1.209-1.252c-0.387-0.482-0.738-0.991-1.03-1.534
			c-0.265-0.492-0.507-0.999-0.715-1.517c-0.162-0.401-0.262-0.827-0.38-1.245c-0.109-0.386-0.217-0.773-0.302-1.165
			c-0.069-0.313-0.105-0.635-0.154-0.953c-0.028-0.182-0.053-0.364-0.078-0.546c-0.018-0.127-0.045-0.254-0.047-0.382
			C36.118-162.793,36.121-163.321,36.122-163.848C36.121-163.848,36.121-163.848,36.122-163.848z M55.206-163.811
			c0-0.203,0.004-0.407-0.001-0.61c-0.005-0.258,0-0.519-0.032-0.775c-0.048-0.4-0.121-0.798-0.188-1.195
			c-0.043-0.26-0.078-0.524-0.148-0.777c-0.09-0.322-0.197-0.642-0.325-0.95c-0.17-0.41-0.351-0.817-0.556-1.209
			c-0.31-0.59-0.727-1.103-1.206-1.567c-0.521-0.505-1.121-0.887-1.78-1.175c-0.367-0.161-0.74-0.312-1.142-0.376
			c-0.379-0.06-0.756-0.142-1.136-0.189c-0.219-0.027-0.445,0.011-0.666-0.01c-0.476-0.043-0.934,0.086-1.401,0.127
			c-0.162,0.014-0.327,0.054-0.479,0.113c-0.397,0.154-0.801,0.302-1.178,0.497c-0.384,0.2-0.755,0.43-1.083,0.723
			c-0.374,0.334-0.727,0.685-1.025,1.09c-0.345,0.47-0.623,0.977-0.847,1.513c-0.14,0.335-0.287,0.667-0.373,1.024
			c-0.05,0.211-0.138,0.413-0.184,0.625c-0.062,0.285-0.072,0.583-0.152,0.862c-0.135,0.476-0.109,0.968-0.171,1.451
			c-0.065,0.5-0.016,1.016-0.014,1.524c0,0.073,0.017,0.146,0.025,0.219c0.024,0.22,0.052,0.439,0.072,0.66
			c0.012,0.129-0.026,0.277,0.025,0.384c0.139,0.291,0.09,0.61,0.184,0.913c0.125,0.404,0.211,0.822,0.351,1.227
			c0.205,0.594,0.465,1.153,0.79,1.689c0.42,0.696,0.956,1.284,1.593,1.779c0.446,0.346,0.929,0.63,1.463,0.833
			c0.393,0.148,0.777,0.301,1.2,0.334c0.037,0.003,0.072,0.016,0.108,0.023c0.151,0.029,0.303,0.081,0.454,0.083
			c0.509,0.011,1.018,0.005,1.526,0.003c0.101,0,0.206,0,0.303-0.023c0.257-0.059,0.514-0.123,0.767-0.198
			c0.302-0.09,0.612-0.169,0.897-0.298c0.455-0.206,0.891-0.447,1.296-0.747c0.563-0.417,1.034-0.92,1.418-1.498
			c0.53-0.797,0.961-1.645,1.176-2.588c0.099-0.435,0.235-0.864,0.305-1.303c0.074-0.462,0.097-0.934,0.126-1.402
			C55.219-163.273,55.206-163.542,55.206-163.811z"/>
		<path fill="#FFFFFF" d="M91.634-163.862c0-0.545-0.004-1.091,0.003-1.637c0.001-0.127,0.037-0.254,0.059-0.381
			c0.013-0.072,0.038-0.143,0.047-0.215c0.047-0.365,0.078-0.732,0.141-1.095c0.044-0.251,0.131-0.494,0.198-0.741
			c0.045-0.167,0.096-0.332,0.133-0.5c0.156-0.711,0.435-1.378,0.737-2.034c0.294-0.635,0.656-1.232,1.064-1.801
			c0.334-0.467,0.725-0.885,1.125-1.294c0.48-0.489,1.025-0.898,1.6-1.264c0.521-0.332,1.062-0.633,1.649-0.841
			c0.374-0.133,0.736-0.301,1.116-0.414c0.402-0.118,0.817-0.194,1.228-0.278c0.369-0.076,0.737-0.157,1.11-0.203
			c0.302-0.037,0.609-0.035,0.914-0.035c0.795-0.001,1.591,0.004,2.386,0.013c0.118,0.001,0.235,0.035,0.353,0.057
			c0.091,0.016,0.181,0.051,0.271,0.053c0.521,0.011,1.02,0.15,1.523,0.255c0.345,0.072,0.673,0.221,1.013,0.32
			c0.569,0.165,1.1,0.416,1.624,0.686c0.584,0.302,1.14,0.654,1.645,1.071c0.435,0.359,0.821,0.778,1.221,1.179
			c0.329,0.33,0.594,0.71,0.849,1.099c0.354,0.54,0.682,1.091,0.916,1.696c0.176,0.456,0.366,0.907,0.534,1.365
			c0.069,0.188,0.093,0.391,0.141,0.585c0.042,0.167,0.093,0.333,0.132,0.501c0.063,0.277,0.121,0.556,0.177,0.834
			c0.019,0.09,0.024,0.183,0.039,0.274c0.028,0.182,0.066,0.362,0.084,0.544c0.024,0.229,0.039,0.459,0.047,0.689
			c0.022,0.72,0.052,1.439,0.055,2.159c0.001,0.488-0.02,0.979-0.067,1.464c-0.036,0.374-0.127,0.742-0.195,1.113
			c-0.046,0.252-0.089,0.506-0.145,0.757c-0.058,0.257-0.127,0.512-0.197,0.766c-0.043,0.158-0.109,0.31-0.145,0.469
			c-0.104,0.471-0.311,0.905-0.501,1.342c-0.297,0.682-0.682,1.318-1.119,1.922c-0.639,0.883-1.383,1.656-2.274,2.294
			c-0.526,0.377-1.075,0.709-1.656,0.984c-0.432,0.204-0.873,0.395-1.341,0.511c-0.355,0.088-0.699,0.221-1.054,0.307
			c-0.311,0.076-0.637,0.093-0.946,0.173c-0.497,0.129-1.01,0.068-1.509,0.155c-0.063,0.011-0.129,0.01-0.194,0.008
			c-0.859-0.021-1.717-0.043-2.576-0.063c-0.346-0.135-0.73-0.056-1.079-0.2c-0.184-0.076-0.392-0.098-0.592-0.131
			c-0.506-0.083-0.972-0.294-1.455-0.454c-0.552-0.182-1.071-0.441-1.567-0.728c-0.841-0.488-1.606-1.081-2.283-1.794
			c-0.568-0.599-1.037-1.263-1.466-1.957c-0.242-0.39-0.422-0.821-0.608-1.243c-0.163-0.37-0.312-0.748-0.439-1.131
			c-0.105-0.319-0.168-0.651-0.25-0.977c-0.049-0.194-0.102-0.388-0.146-0.583c-0.066-0.296-0.128-0.593-0.188-0.891
			c-0.013-0.062-0.011-0.128-0.015-0.193c-0.007-0.12,0.009-0.248-0.026-0.358c-0.161-0.506-0.089-1.027-0.113-1.541
			c-0.01-0.222-0.001-0.444-0.001-0.666C91.625-163.862,91.63-163.862,91.634-163.862z M110.718-163.826
			c0.013-0.001,0.026-0.002,0.04-0.003c-0.053-0.717-0.106-1.434-0.16-2.15c-0.003-0.046-0.008-0.093-0.019-0.137
			c-0.064-0.265-0.151-0.526-0.191-0.794c-0.071-0.473-0.226-0.918-0.405-1.355c-0.272-0.662-0.597-1.294-1.039-1.868
			c-0.286-0.37-0.605-0.703-0.953-1.008c-0.688-0.605-1.506-0.98-2.366-1.257c-0.38-0.123-0.787-0.195-1.186-0.224
			c-0.534-0.038-1.072-0.018-1.608-0.006c-0.163,0.003-0.324,0.062-0.486,0.093c-0.233,0.044-0.477,0.057-0.698,0.135
			c-0.375,0.133-0.741,0.297-1.102,0.466c-0.404,0.188-0.781,0.428-1.118,0.718c-0.392,0.339-0.756,0.707-1.061,1.131
			c-0.334,0.466-0.617,0.96-0.833,1.49c-0.138,0.336-0.297,0.665-0.371,1.024c-0.03,0.142-0.071,0.281-0.111,0.421
			c-0.063,0.227-0.154,0.449-0.19,0.68c-0.061,0.389-0.088,0.784-0.13,1.176c-0.009,0.083-0.01,0.168-0.031,0.248
			c-0.085,0.318-0.064,0.642-0.065,0.964c-0.001,0.287-0.001,0.574,0,0.86c0,0.102,0.005,0.203,0.015,0.304
			c0.026,0.266,0.057,0.531,0.084,0.797c0.011,0.11,0.006,0.223,0.028,0.331c0.062,0.303,0.132,0.604,0.202,0.905
			c0.079,0.346,0.136,0.7,0.249,1.035c0.119,0.35,0.306,0.677,0.441,1.023c0.267,0.685,0.684,1.274,1.168,1.813
			c0.595,0.664,1.301,1.192,2.125,1.545c0.281,0.121,0.565,0.236,0.869,0.311c0.206,0.051,0.423,0.05,0.615,0.125
			c0.171,0.067,0.338,0.083,0.512,0.083c0.481,0.002,0.963,0.018,1.442-0.005c0.31-0.015,0.625-0.059,0.92-0.146
			c0.309-0.091,0.621-0.18,0.923-0.305c0.433-0.179,0.849-0.388,1.232-0.646c0.583-0.393,1.087-0.878,1.498-1.456
			c0.523-0.737,0.95-1.521,1.206-2.392c0.044-0.148,0.085-0.297,0.131-0.445c0.091-0.295,0.194-0.588,0.206-0.902
			c0.001-0.046,0.014-0.091,0.021-0.137c0.029-0.189,0.061-0.379,0.087-0.569c0.016-0.119,0.021-0.239,0.034-0.358
			c0.025-0.247,0.061-0.492,0.073-0.74C110.728-163.307,110.718-163.566,110.718-163.826z"/>
		<path fill="#FFFFFF" d="M163.368-176.588c0.379,0,0.758,0,1.138,0c0.295,0,0.584,0.01,0.875,0.099
			c0.27,0.083,0.561,0.092,0.842,0.138c0.271,0.044,0.536,0.103,0.792,0.209c0.243,0.101,0.506,0.151,0.747,0.254
			c0.387,0.165,0.769,0.343,1.143,0.535c0.901,0.463,1.615,1.153,2.245,1.93c0.276,0.341,0.464,0.745,0.648,1.148
			c0.149,0.327,0.247,0.67,0.298,1.012c0.08,0.525,0.11,1.073-0.102,1.582c-0.194,0.465-0.504,0.856-0.937,1.129
			c-0.28,0.177-0.586,0.292-0.927,0.296c-0.341,0.003-0.682,0.015-1.007-0.119c-0.265-0.109-0.489-0.276-0.663-0.498
			c-0.276-0.352-0.517-0.727-0.724-1.124c-0.188-0.358-0.357-0.732-0.588-1.061c-0.413-0.587-0.853-1.158-1.504-1.511
			c-0.271-0.147-0.557-0.245-0.861-0.318c-0.713-0.172-1.432-0.23-2.16-0.205c-0.126,0.004-0.251,0.04-0.377,0.062
			c-0.073,0.013-0.145,0.036-0.218,0.04c-0.65,0.031-1.245,0.247-1.798,0.568c-0.563,0.327-1.044,0.748-1.314,1.363
			c-0.095,0.217-0.178,0.437-0.184,0.679c-0.011,0.406,0.013,0.796,0.202,1.177c0.188,0.378,0.453,0.677,0.779,0.921
			c0.424,0.317,0.892,0.555,1.39,0.747c0.339,0.13,0.676,0.246,1.029,0.33c0.352,0.083,0.69,0.216,1.039,0.309
			c0.38,0.1,0.766,0.174,1.147,0.27c0.239,0.06,0.473,0.141,0.71,0.208c0.167,0.047,0.335,0.088,0.503,0.132
			c0.455,0.121,0.913,0.231,1.364,0.367c0.451,0.136,0.903,0.274,1.337,0.454c0.895,0.371,1.769,0.784,2.556,1.361
			c0.67,0.493,1.208,1.095,1.625,1.818c0.21,0.364,0.365,0.749,0.515,1.135c0.084,0.217,0.088,0.465,0.144,0.695
			c0.205,0.848,0.105,1.709,0.094,2.564c-0.004,0.34-0.127,0.679-0.182,1.02c-0.047,0.289-0.168,0.553-0.256,0.828
			c-0.125,0.392-0.331,0.746-0.53,1.1c-0.246,0.436-0.558,0.829-0.896,1.193c-0.373,0.402-0.809,0.737-1.256,1.056
			c-0.479,0.342-1.01,0.592-1.535,0.849c-0.234,0.115-0.499,0.17-0.75,0.25c-0.33,0.104-0.656,0.237-0.994,0.301
			c-0.314,0.06-0.626,0.137-0.94,0.195c-0.503,0.093-1.012,0.057-1.512,0.141c-0.09,0.015-0.185,0.013-0.277,0.01
			c-0.831-0.02-1.665-0.008-2.492-0.08c-0.345-0.03-0.709-0.048-1.051-0.181c-0.211-0.082-0.45-0.09-0.671-0.148
			c-0.236-0.062-0.469-0.142-0.701-0.22c-0.224-0.075-0.443-0.16-0.666-0.236c-0.505-0.174-0.972-0.432-1.41-0.728
			c-0.536-0.363-1.044-0.77-1.474-1.262c-0.376-0.431-0.735-0.875-1.008-1.381c-0.189-0.351-0.377-0.704-0.549-1.064
			c-0.073-0.153-0.109-0.326-0.152-0.492c-0.071-0.273-0.158-0.544-0.194-0.822c-0.053-0.417-0.092-0.836,0.033-1.257
			c0.054-0.184,0.115-0.36,0.207-0.526c0.263-0.481,0.656-0.828,1.169-0.999c0.273-0.091,0.581-0.109,0.872-0.105
			c0.575,0.007,1.068,0.231,1.437,0.68c0.336,0.409,0.568,0.876,0.762,1.371c0.242,0.615,0.538,1.205,0.898,1.765
			c0.251,0.391,0.563,0.714,0.907,1.01c0.269,0.231,0.58,0.409,0.906,0.554c0.248,0.11,0.505,0.184,0.769,0.254
			c0.73,0.195,1.471,0.217,2.217,0.2c0.082-0.002,0.163-0.025,0.244-0.04c0.108-0.021,0.216-0.059,0.325-0.061
			c0.343-0.007,0.661-0.11,0.986-0.204c0.316-0.091,0.619-0.207,0.905-0.362c0.517-0.281,0.98-0.624,1.345-1.101
			c0.208-0.271,0.393-0.55,0.496-0.871c0.081-0.251,0.14-0.516,0.159-0.778c0.03-0.405,0.024-0.813-0.11-1.206
			c-0.125-0.366-0.306-0.697-0.573-0.98c-0.469-0.499-1.014-0.88-1.661-1.112c-0.392-0.14-0.779-0.296-1.176-0.418
			c-0.337-0.104-0.687-0.167-1.029-0.256c-0.396-0.103-0.787-0.22-1.183-0.321c-0.347-0.088-0.699-0.156-1.046-0.244
			c-0.237-0.06-0.47-0.139-0.704-0.21c-0.148-0.044-0.294-0.095-0.444-0.131c-0.706-0.172-1.378-0.444-2.044-0.722
			c-0.771-0.322-1.494-0.75-2.131-1.292c-0.604-0.515-1.12-1.122-1.476-1.835c-0.185-0.371-0.358-0.756-0.42-1.18
			c-0.05-0.344-0.181-0.68-0.2-1.024c-0.029-0.54-0.094-1.086,0.057-1.625c0.069-0.247,0.101-0.504,0.144-0.758
			c0.068-0.41,0.238-0.786,0.409-1.156c0.35-0.758,0.862-1.41,1.487-1.953c0.436-0.379,0.915-0.721,1.448-0.964
			c0.409-0.187,0.82-0.372,1.237-0.542c0.175-0.071,0.368-0.097,0.552-0.147c0.167-0.045,0.33-0.104,0.498-0.139
			c0.568-0.115,1.135-0.237,1.708-0.323c0.299-0.044,0.609-0.021,0.914-0.024c0.269-0.003,0.537-0.001,0.805-0.001
			C163.368-176.595,163.368-176.592,163.368-176.588z"/>
		<path fill="#FFFFFF" d="M-0.292-172.291c0,0.135,0,0.208,0,0.282c0,1.822,0,3.645,0,5.467c0,0.046,0,0.093,0.001,0.139
			c0.002,0.137,0.091,0.197,0.208,0.217c0.081,0.014,0.166,0.005,0.249,0.005c3.358,0,6.716,0,10.075,0c0.157,0,0.315,0,0.472,0.009
			c0.505,0.027,0.942,0.227,1.278,0.596c0.159,0.175,0.265,0.396,0.337,0.64c0.074,0.247,0.102,0.488,0.086,0.735
			c-0.038,0.606-0.297,1.107-0.814,1.43c-0.344,0.214-0.736,0.311-1.154,0.31c-3.414-0.005-6.828-0.001-10.241-0.004
			c-0.597,0-0.495,0.036-0.495,0.5c-0.003,2.063-0.001,4.126-0.001,6.189c0,0.074-0.004,0.148,0.001,0.222
			c0.013,0.167,0.092,0.242,0.264,0.253c0.073,0.005,0.148,0.001,0.222,0.001c3.802,0,7.604,0,11.407,0
			c0.148,0,0.298-0.007,0.444,0.012c0.683,0.089,1.238,0.361,1.546,1.031c0.171,0.37,0.254,0.747,0.205,1.144
			c-0.079,0.629-0.373,1.137-0.946,1.441c-0.357,0.19-0.749,0.303-1.154,0.304c-4.737,0.005-9.474,0.006-14.21-0.001
			c-0.383-0.001-0.759-0.079-1.128-0.213c-0.251-0.092-0.481-0.197-0.697-0.351c-0.383-0.274-0.558-0.667-0.706-1.096
			c-0.204-0.591-0.186-1.196-0.186-1.802c-0.001-6.125-0.002-12.249,0.002-18.374c0-0.332,0.007-0.671,0.076-0.993
			c0.173-0.815,0.593-1.462,1.406-1.772c0.219-0.083,0.463-0.101,0.697-0.142c0.936-0.166,1.879-0.074,2.819-0.077
			c3.756-0.012,7.512-0.004,11.269-0.007c0.446,0,0.885,0.059,1.294,0.22c0.404,0.159,0.707,0.46,0.897,0.867
			c0.21,0.45,0.178,0.93,0.102,1.382s-0.363,0.827-0.782,1.062c-0.238,0.134-0.498,0.199-0.77,0.256
			c-0.598,0.125-1.197,0.068-1.795,0.07c-3.275,0.008-6.55,0.003-9.825,0.006C0.017-172.333-0.126-172.307-0.292-172.291z"/>
		<path fill="#FFFFFF" d="M70.544-160.523c-0.738,1.13-1.449,2.215-2.155,3.302c-0.43,0.662-0.849,1.331-1.281,1.991
			c-0.398,0.607-0.81,1.207-1.212,1.812c-0.333,0.498-0.651,1.006-0.995,1.496c-0.308,0.439-0.746,0.739-1.248,0.886
			c-0.364,0.107-0.765,0.145-1.151,0.06c-0.177-0.039-0.354-0.034-0.534-0.109c-0.481-0.201-0.838-0.525-1.041-0.989
			c-0.09-0.208-0.193-0.432-0.173-0.681c0.014-0.175,0.012-0.352,0-0.527c-0.024-0.329,0.113-0.62,0.192-0.927
			c0.151-0.583,0.475-1.081,0.764-1.594c0.149-0.266,0.342-0.506,0.514-0.759c0.291-0.43,0.58-0.86,0.87-1.29
			c0.228-0.336,0.456-0.672,0.685-1.007c0.421-0.613,0.846-1.223,1.264-1.837c0.537-0.79,1.07-1.583,1.604-2.374
			c0.25-0.37,0.492-0.745,0.753-1.106c0.073-0.101,0.081-0.152,0.012-0.258c-0.538-0.829-1.062-1.667-1.599-2.497
			c-0.395-0.61-0.809-1.208-1.203-1.818c-0.615-0.951-1.229-1.903-1.825-2.866c-0.33-0.53-0.62-1.083-0.891-1.647
			c-0.298-0.622-0.372-1.259-0.303-1.92c0.034-0.323,0.263-0.569,0.478-0.806c0.267-0.296,0.634-0.42,0.979-0.582
			c0.047-0.022,0.109-0.015,0.165-0.017c0.231-0.004,0.462-0.001,0.693-0.011c0.667-0.029,1.179,0.273,1.585,0.767
			c0.443,0.54,0.838,1.115,1.185,1.724c0.261,0.457,0.565,0.889,0.844,1.336c0.292,0.469,0.575,0.944,0.864,1.415
			c0.27,0.438,0.545,0.872,0.813,1.311c0.314,0.512,0.621,1.027,0.934,1.539c0.155,0.253,0.317,0.502,0.501,0.793
			c0.12-0.15,0.223-0.261,0.306-0.385c0.373-0.558,0.742-1.118,1.108-1.68c0.387-0.594,0.767-1.192,1.153-1.787
			c0.533-0.82,1.069-1.637,1.603-2.457c0.253-0.389,0.495-0.787,0.756-1.171c0.311-0.457,0.623-0.918,1.132-1.186
			c0.234-0.123,0.472-0.236,0.751-0.218c0.203,0.012,0.407,0.001,0.61,0.002c0.547,0.002,0.971,0.261,1.339,0.639
			c0.193,0.198,0.329,0.431,0.423,0.688c0.031,0.084,0.033,0.181,0.034,0.272c0.003,0.25,0.032,0.505-0.01,0.748
			c-0.052,0.292-0.139,0.586-0.259,0.858c-0.156,0.356-0.351,0.697-0.546,1.034c-0.176,0.305-0.374,0.597-0.563,0.894
			c-0.284,0.443-0.565,0.888-0.855,1.328c-0.314,0.475-0.639,0.942-0.955,1.417c-0.376,0.565-0.743,1.136-1.12,1.701
			c-0.342,0.513-0.694,1.02-1.037,1.532c-0.262,0.392-0.518,0.789-0.777,1.186c0.245,0.384,0.477,0.751,0.71,1.117
			c0.146,0.228,0.293,0.455,0.44,0.682c0.358,0.556,0.718,1.111,1.076,1.668c0.378,0.588,0.753,1.178,1.133,1.765
			c0.542,0.837,1.089,1.669,1.627,2.509c0.372,0.58,0.749,1.157,1.089,1.755c0.19,0.335,0.33,0.697,0.416,1.084
			c0.053,0.237,0.102,0.467,0.089,0.705c-0.04,0.775-0.387,1.366-1.058,1.773c-0.455,0.276-0.949,0.306-1.455,0.288
			c-0.631-0.023-1.148-0.299-1.554-0.768c-0.218-0.252-0.4-0.536-0.583-0.815c-0.396-0.608-0.784-1.221-1.172-1.834
			c-0.378-0.598-0.751-1.199-1.13-1.796c-0.504-0.795-1.014-1.588-1.518-2.384c-0.354-0.559-0.703-1.122-1.057-1.681
			C70.718-160.329,70.636-160.411,70.544-160.523z"/>
		<path fill="#FFFFFF" d="M27.572-172.067c0,0.162,0,0.289,0,0.416c0,5.957,0,11.915,0,17.872c0,0.221-0.001,0.438-0.087,0.653
			c-0.074,0.183-0.058,0.389-0.122,0.587c-0.179,0.558-0.509,0.978-1,1.278c-0.518,0.318-1.089,0.359-1.673,0.28
			c-0.196-0.027-0.392-0.037-0.587-0.126c-0.408-0.187-0.762-0.429-1.009-0.803c-0.194-0.296-0.291-0.631-0.397-0.971
			c-0.121-0.387-0.103-0.765-0.103-1.147c-0.004-5.855-0.003-11.711-0.003-17.566c0-0.138,0-0.275,0-0.444
			c-0.142-0.01-0.257-0.026-0.373-0.026c-1.795-0.001-3.589-0.007-5.384,0.003c-0.416,0.002-0.812-0.077-1.179-0.244
			c-0.433-0.197-0.74-0.53-0.925-0.988c-0.179-0.442-0.159-0.896-0.093-1.332c0.084-0.549,0.425-0.975,0.92-1.244
			c0.255-0.139,0.54-0.2,0.831-0.256c0.525-0.102,1.048-0.062,1.572-0.063c5.079-0.005,10.157-0.007,15.235,0.003
			c0.471,0.001,0.951,0.06,1.379,0.3c0.415,0.233,0.714,0.551,0.885,1.015c0.162,0.438,0.15,0.883,0.071,1.304
			c-0.082,0.433-0.331,0.812-0.735,1.075c-0.448,0.292-0.926,0.426-1.453,0.426c-1.804-0.001-3.608,0-5.412,0
			C27.824-172.067,27.715-172.067,27.572-172.067z"/>
		<path fill="#FFFFFF" d="M87.953-163.779c0,3.385,0.001,6.771,0,10.156c0,0.657-0.188,1.26-0.571,1.794
			c-0.244,0.341-0.572,0.575-0.967,0.719c-0.47,0.172-0.945,0.18-1.437,0.12c-0.761-0.093-1.264-0.542-1.628-1.158
			c-0.153-0.257-0.208-0.572-0.285-0.872c-0.178-0.706-0.094-1.416-0.095-2.122c-0.009-6.216-0.005-12.432-0.005-18.647
			c0-0.211,0-0.417,0.086-0.624c0.076-0.181,0.054-0.388,0.119-0.586c0.102-0.312,0.25-0.589,0.458-0.826
			c0.253-0.288,0.557-0.507,0.93-0.659c0.374-0.152,0.741-0.103,1.111-0.11c0.751-0.017,1.322,0.334,1.764,0.922
			c0.219,0.292,0.305,0.633,0.415,0.974c0.122,0.384,0.103,0.765,0.104,1.15C87.955-170.291,87.953-167.035,87.953-163.779z"/>
		<path fill="#FFFFFF" d="M149.702-163.769c0,3.358-0.004,6.717,0.005,10.076c0.001,0.553-0.126,1.068-0.361,1.554
			c-0.158,0.327-0.409,0.589-0.72,0.799c-0.579,0.39-1.206,0.431-1.871,0.352c-0.745-0.087-1.257-0.507-1.62-1.117
			c-0.148-0.25-0.195-0.562-0.285-0.846c-0.011-0.034,0.002-0.078-0.011-0.11c-0.174-0.389-0.113-0.801-0.113-1.205
			c-0.003-6.504-0.002-13.008-0.002-19.513c0-0.222,0.01-0.438,0.095-0.652c0.072-0.184,0.054-0.39,0.124-0.587
			c0.092-0.262,0.207-0.505,0.374-0.713c0.265-0.329,0.582-0.584,0.992-0.749c0.418-0.168,0.835-0.12,1.25-0.108
			c0.677,0.019,1.201,0.351,1.609,0.889c0.232,0.305,0.327,0.653,0.438,1.01c0.111,0.358,0.096,0.71,0.096,1.066
			C149.704-170.338,149.702-167.054,149.702-163.769z"/>
	</g>
</g>
<g>
	<g>
		<path fill="#FFFFFF" d="M363.976-113.047c0,0.301,0,0.602,0,0.903c0,12.063,0.001,24.126-0.002,36.189
			c0,0.592,0.027,1.192-0.053,1.775c-0.121,0.882-0.384,1.719-0.802,2.529c-0.663,1.289-1.735,2.088-3.017,2.562
			c-0.706,0.261-1.534,0.258-2.308,0.256c-1.162-0.004-2.262-0.271-3.208-1.031c-0.865-0.695-1.514-1.528-1.892-2.573
			c-0.444-1.227-0.624-2.489-0.623-3.795c0.009-16.661,0.004-33.322,0.015-49.983c0-0.561,0.122-1.123,0.189-1.684
			c0.02-0.164,0.051-0.327,0.067-0.491c0.237-2.099,1.299-3.664,3.007-4.882c0.744-0.531,1.604-0.743,2.386-1.152
			c0.116-0.062,0.273-0.062,0.413-0.063c1.019-0.005,2.041-0.056,3.055,0.019c0.49,0.037,0.979,0.275,1.44,0.488
			c1.122,0.52,2.089,1.25,2.788,2.29c0.897,1.331,1.79,2.664,2.681,4c1.068,1.605,2.138,3.209,3.193,4.822
			c0.803,1.223,1.578,2.461,2.375,3.687c0.734,1.129,1.484,2.248,2.225,3.374c1.009,1.533,2.014,3.068,3.02,4.603
			c0.868,1.324,1.735,2.648,2.604,3.974c1.245,1.905,2.48,3.815,3.735,5.713c1.255,1.899,2.537,3.781,3.791,5.681
			c0.816,1.235,1.601,2.493,2.408,3.733c0.528,0.811,1.077,1.608,1.617,2.411c0.056-0.015,0.112-0.029,0.168-0.043
			c0.007-0.294,0.019-0.589,0.02-0.883c0-11.969,0-23.937,0-35.905c0-0.474-0.029-0.95,0.009-1.421
			c0.041-0.488,0.136-0.973,0.229-1.456c0.092-0.481,0.182-0.965,0.322-1.433c0.492-1.643,1.509-2.779,3.146-3.401
			c0.483-0.184,0.938-0.266,1.429-0.278c0.521-0.014,1.043-0.026,1.562,0.006c1.766,0.107,3.062,0.998,3.984,2.468
			c0.54,0.861,0.734,1.822,0.911,2.821c0.325,1.84,0.172,3.68,0.174,5.517c0.021,15.689,0.016,31.378,0.003,47.067
			c-0.001,1.028-0.21,2.038-0.436,3.048c-0.176,0.794-0.496,1.495-0.903,2.178c-0.613,1.025-1.511,1.73-2.605,2.135
			c-1.418,0.523-2.891,0.542-4.389,0.364c-0.588-0.07-1.173-0.15-1.703-0.367c-0.685-0.28-1.373-0.621-1.955-1.071
			c-1.334-1.029-2.404-2.315-3.332-3.724c-0.535-0.813-1.144-1.577-1.685-2.386c-0.631-0.943-1.221-1.915-1.834-2.868
			c-0.596-0.922-1.203-1.834-1.801-2.755c-1.061-1.64-2.117-3.282-3.176-4.924c-1.146-1.776-2.287-3.554-3.436-5.328
			c-0.945-1.46-1.898-2.915-2.85-4.373c-1.064-1.636-2.138-3.27-3.195-4.911c-1.32-2.047-2.627-4.104-3.949-6.15
			c-0.693-1.074-1.408-2.135-2.112-3.203c-0.372-0.563-0.734-1.131-1.113-1.69c-0.111-0.166-0.259-0.308-0.39-0.46
			C364.109-113.096,364.043-113.072,363.976-113.047z"/>
		<path fill="#FFFFFF" d="M-29.781-101.923c0-8.269,0.002-16.538-0.002-24.807c-0.001-1.286,0.315-2.501,0.881-3.635
			c0.7-1.402,1.852-2.25,3.39-2.646c1.289-0.332,2.58-0.473,3.904-0.471c6.113,0.009,12.226-0.011,18.339,0.015
			c1.34,0.006,2.681,0.143,4.019,0.25c0.726,0.058,1.453,0.149,2.168,0.283c0.707,0.132,1.401,0.334,2.1,0.511
			c0.769,0.195,1.54,0.379,2.302,0.596c1.394,0.398,2.675,1.055,3.91,1.797c1.216,0.731,2.344,1.591,3.401,2.537
			c1.709,1.529,3.199,3.25,4.437,5.186c0.686,1.072,1.286,2.185,1.832,3.336c0.689,1.455,1.264,2.952,1.688,4.495
			c0.283,1.028,0.64,2.043,0.73,3.13c0.067,0.806,0.318,1.596,0.487,2.394c0.015,0.069,0.028,0.14,0.034,0.21
			c0.104,1.435,0.263,2.868,0.297,4.305c0.05,2.084,0.015,4.169,0.002,6.255c-0.002,0.4-0.062,0.801-0.101,1.201
			c-0.056,0.562-0.107,1.126-0.18,1.687c-0.051,0.394-0.134,0.783-0.204,1.174c-0.013,0.07-0.04,0.137-0.049,0.207
			c-0.114,0.813-0.195,1.633-0.347,2.44c-0.12,0.639-0.322,1.263-0.492,1.892c-0.117,0.43-0.247,0.857-0.363,1.287
			c-0.41,1.508-1.031,2.929-1.698,4.339c-0.599,1.266-1.285,2.473-2.091,3.614c-0.875,1.24-1.849,2.396-2.926,3.466
			c-0.844,0.838-1.721,1.63-2.698,2.316c-1.313,0.922-2.659,1.762-4.157,2.366c-0.799,0.321-1.62,0.571-2.416,0.88
			c-0.97,0.377-1.983,0.54-2.977,0.761c-1.165,0.26-2.379,0.3-3.572,0.437c-4.154,0.477-8.323,0.166-12.485,0.229
			c-3.269,0.049-6.54,0.031-9.809-0.004c-0.916-0.009-1.863-0.063-2.736-0.308c-1.422-0.4-2.766-1.039-3.553-2.399
			c-0.31-0.535-0.62-1.13-0.695-1.727c-0.129-1.022-0.395-2.018-0.39-3.073C-29.765-85.574-29.781-93.749-29.781-101.923z
			 M-16.868-79.959c0.235,0,0.492,0,0.749,0c3.638-0.006,7.277,0.067,10.912-0.188c1.085-0.077,2.175-0.09,3.262-0.14
			c0.188-0.009,0.38-0.032,0.561-0.083c0.898-0.252,1.813-0.415,2.702-0.739c0.905-0.33,1.761-0.726,2.546-1.249
			c1.208-0.805,2.233-1.824,3.092-3.002c0.713-0.979,1.382-1.981,1.845-3.107c0.369-0.898,0.739-1.796,1.083-2.704
			c0.14-0.369,0.225-0.761,0.309-1.147c0.134-0.612,0.255-1.228,0.365-1.844c0.174-0.971,0.374-1.939,0.489-2.917
			c0.104-0.89,0.157-1.791,0.148-2.687c-0.023-2.46-0.072-4.92-0.153-7.379c-0.025-0.749-0.187-1.493-0.287-2.24
			c-0.006-0.047-0.014-0.094-0.026-0.139c-0.168-0.628-0.377-1.249-0.497-1.886c-0.189-1.013-0.522-1.975-0.923-2.914
			c-0.74-1.729-1.809-3.25-3.081-4.621c-0.731-0.788-1.566-1.457-2.504-2.018c-1.071-0.64-2.204-1.061-3.403-1.335
			c-0.568-0.13-1.166-0.158-1.715-0.338c-1.114-0.364-2.273-0.418-3.415-0.517c-1.53-0.132-3.073-0.136-4.61-0.151
			c-2.251-0.022-4.502-0.007-6.753-0.003c-0.253,0-0.506,0.026-0.737,0.039C-17.097-122.461-17.059-80.564-16.868-79.959z"/>
		<path fill="#FFFFFF" d="M139.065-101.855c0-1.421-0.008-2.842,0.006-4.263c0.003-0.303,0.087-0.606,0.143-0.907
			c0.034-0.186,0.102-0.365,0.126-0.551c0.122-0.935,0.198-1.877,0.362-2.805c0.118-0.666,0.35-1.311,0.525-1.966
			c0.115-0.427,0.256-0.851,0.324-1.286c0.142-0.903,0.516-1.725,0.842-2.563c0.403-1.037,0.761-2.099,1.256-3.091
			c0.56-1.123,1.198-2.216,1.902-3.254c0.689-1.015,1.456-1.987,2.273-2.903c1.728-1.939,3.681-3.624,5.963-4.893
			c1.037-0.577,2.075-1.162,3.155-1.647c0.902-0.406,1.865-0.675,2.803-1.001c0.504-0.175,1.006-0.357,1.517-0.506
			c0.451-0.132,0.911-0.247,1.374-0.328c0.764-0.134,1.533-0.236,2.301-0.347c0.163-0.024,0.343,0.006,0.493-0.05
			c1.077-0.399,2.202-0.276,3.307-0.29c1.942-0.024,3.885,0.003,5.827,0.028c0.349,0.004,0.697,0.097,1.044,0.156
			c0.187,0.032,0.37,0.114,0.555,0.116c1.358,0.019,2.662,0.383,3.975,0.657c0.883,0.185,1.722,0.567,2.595,0.815
			c1.506,0.427,2.916,1.082,4.29,1.808c1.445,0.762,2.831,1.64,4.089,2.679c1.043,0.862,2.042,1.797,2.951,2.799
			c0.889,0.979,1.692,2.047,2.438,3.142c0.902,1.324,1.696,2.719,2.279,4.224c0.343,0.885,0.77,1.74,1.081,2.635
			c0.275,0.792,0.438,1.621,0.655,2.432c0.103,0.382,0.236,0.756,0.323,1.141c0.166,0.733,0.312,1.472,0.458,2.209
			c0.05,0.254,0.07,0.515,0.11,0.771c0.068,0.442,0.161,0.881,0.207,1.326c0.061,0.586,0.104,1.175,0.125,1.764
			c0.06,1.63,0.144,3.261,0.143,4.891c0,1.464-0.053,2.932-0.17,4.391c-0.074,0.935-0.302,1.858-0.47,2.785
			c-0.126,0.694-0.254,1.389-0.404,2.078c-0.133,0.615-0.289,1.227-0.45,1.835c-0.144,0.54-0.291,1.079-0.47,1.607
			c-0.208,0.612-0.422,1.224-0.687,1.812c-0.551,1.224-1.065,2.472-1.725,3.636c-0.848,1.494-1.823,2.916-2.938,4.23
			c-0.5,0.589-1.001,1.184-1.559,1.716c-1.33,1.271-2.754,2.425-4.308,3.424c-1.604,1.031-3.312,1.852-5.082,2.53
			c-1.132,0.433-2.33,0.697-3.501,1.026c-0.656,0.184-1.317,0.349-1.978,0.514c-0.159,0.04-0.327,0.043-0.49,0.068
			c-0.488,0.074-0.973,0.17-1.463,0.22c-0.47,0.048-0.944,0.057-1.416,0.072c-1.678,0.053-3.356,0.137-5.034,0.141
			c-1.204,0.003-2.433,0.024-3.604-0.202c-0.895-0.172-1.833-0.087-2.701-0.473c-0.463-0.207-1.004-0.253-1.516-0.333
			c-0.999-0.156-1.913-0.583-2.87-0.864c-1.704-0.499-3.241-1.349-4.809-2.134c-0.66-0.33-1.265-0.78-1.866-1.214
			c-0.774-0.56-1.542-1.132-2.272-1.748c-1.14-0.961-2.162-2.041-3.096-3.206c-0.992-1.237-1.89-2.538-2.638-3.929
			c-0.678-1.26-1.298-2.559-1.833-3.885c-0.414-1.027-0.67-2.119-0.972-3.188c-0.279-0.989-0.555-1.98-0.775-2.983
			c-0.177-0.804-0.269-1.626-0.395-2.441c-0.072-0.465-0.136-0.932-0.201-1.398c-0.045-0.326-0.117-0.652-0.12-0.979
			c-0.014-1.35-0.006-2.701-0.006-4.051C139.064-101.855,139.064-101.855,139.065-101.855z M187.95-101.76
			c0-0.521,0.01-1.042-0.002-1.563c-0.015-0.663-0.002-1.33-0.082-1.985c-0.124-1.025-0.309-2.043-0.48-3.062
			c-0.112-0.666-0.199-1.341-0.38-1.99c-0.23-0.825-0.505-1.643-0.833-2.434c-0.435-1.05-0.897-2.093-1.425-3.098
			c-0.793-1.512-1.86-2.824-3.088-4.015c-1.334-1.293-2.872-2.271-4.561-3.011c-0.94-0.412-1.896-0.801-2.925-0.964
			c-0.972-0.154-1.937-0.363-2.912-0.485c-0.56-0.07-1.14,0.028-1.704-0.024c-1.22-0.112-2.393,0.221-3.589,0.325
			c-0.415,0.036-0.838,0.138-1.227,0.289c-1.018,0.396-2.051,0.772-3.017,1.273c-0.984,0.511-1.934,1.101-2.772,1.851
			c-0.958,0.855-1.862,1.754-2.625,2.793c-0.884,1.205-1.596,2.502-2.17,3.876c-0.359,0.858-0.736,1.709-0.954,2.622
			c-0.129,0.54-0.354,1.059-0.471,1.601c-0.157,0.729-0.185,1.494-0.389,2.208c-0.347,1.22-0.278,2.479-0.439,3.715
			c-0.166,1.282-0.04,2.602-0.034,3.905c0.001,0.188,0.042,0.375,0.063,0.562c0.063,0.563,0.134,1.125,0.186,1.69
			c0.031,0.33-0.066,0.709,0.064,0.984c0.355,0.745,0.23,1.563,0.471,2.339c0.322,1.035,0.542,2.104,0.9,3.143
			c0.523,1.52,1.191,2.953,2.022,4.327c1.077,1.782,2.449,3.29,4.082,4.557c1.142,0.887,2.379,1.613,3.748,2.133
			c1.005,0.381,1.991,0.772,3.072,0.856c0.094,0.007,0.185,0.04,0.277,0.058c0.388,0.076,0.774,0.207,1.163,0.215
			c1.303,0.027,2.606,0.013,3.909,0.007c0.26-0.001,0.527-0.001,0.777-0.059c0.659-0.151,1.316-0.315,1.964-0.508
			c0.774-0.231,1.566-0.433,2.298-0.764c1.165-0.527,2.283-1.146,3.32-1.913c1.442-1.066,2.649-2.356,3.633-3.836
			c1.357-2.042,2.462-4.213,3.014-6.63c0.254-1.115,0.602-2.212,0.781-3.337c0.189-1.185,0.249-2.392,0.325-3.591
			C187.985-100.383,187.95-101.073,187.95-101.76z"/>
		<path fill="#FFFFFF" d="M281.264-101.892c0-1.397-0.01-2.795,0.008-4.192c0.004-0.326,0.095-0.652,0.15-0.977
			c0.033-0.186,0.098-0.366,0.121-0.552c0.121-0.935,0.2-1.877,0.361-2.805c0.111-0.643,0.336-1.266,0.508-1.899
			c0.115-0.426,0.246-0.85,0.34-1.282c0.398-1.821,1.113-3.529,1.891-5.21c0.752-1.627,1.681-3.157,2.725-4.615
			c0.855-1.196,1.855-2.268,2.884-3.315c1.229-1.252,2.625-2.302,4.097-3.238c1.336-0.85,2.723-1.62,4.225-2.154
			c0.958-0.341,1.887-0.772,2.859-1.06c1.028-0.303,2.092-0.497,3.146-0.713c0.942-0.195,1.889-0.401,2.844-0.519
			c0.772-0.096,1.561-0.089,2.34-0.09c2.037-0.002,4.075,0.01,6.112,0.033c0.302,0.003,0.603,0.09,0.903,0.145
			c0.231,0.042,0.463,0.131,0.694,0.136c1.334,0.027,2.613,0.385,3.902,0.654c0.884,0.185,1.724,0.566,2.595,0.819
			c1.457,0.422,2.817,1.064,4.159,1.757c1.496,0.773,2.92,1.676,4.213,2.743c1.115,0.92,2.104,1.994,3.128,3.021
			c0.843,0.844,1.521,1.819,2.173,2.815c0.906,1.382,1.747,2.795,2.347,4.343c0.451,1.168,0.938,2.323,1.367,3.498
			c0.176,0.479,0.236,1,0.359,1.499c0.106,0.429,0.237,0.852,0.337,1.282c0.162,0.71,0.312,1.424,0.455,2.138
			c0.048,0.231,0.062,0.469,0.101,0.702c0.07,0.466,0.169,0.928,0.217,1.396c0.061,0.586,0.1,1.176,0.119,1.766
			c0.059,1.843,0.135,3.687,0.141,5.531c0.004,1.251-0.051,2.506-0.171,3.751c-0.093,0.958-0.325,1.902-0.499,2.852
			c-0.119,0.647-0.229,1.298-0.372,1.94c-0.146,0.659-0.325,1.312-0.504,1.963c-0.111,0.404-0.28,0.793-0.371,1.2
			c-0.269,1.207-0.796,2.318-1.284,3.437c-0.762,1.748-1.747,3.377-2.865,4.923c-1.636,2.263-3.543,4.243-5.824,5.878
			c-1.349,0.966-2.753,1.817-4.241,2.521c-1.106,0.522-2.234,1.012-3.437,1.309c-0.908,0.225-1.79,0.565-2.698,0.785
			c-0.797,0.193-1.632,0.237-2.425,0.442c-1.272,0.33-2.587,0.176-3.864,0.397c-0.162,0.028-0.331,0.025-0.496,0.021
			c-2.2-0.053-4.399-0.11-6.601-0.166c-0.886-0.347-1.868-0.144-2.764-0.513c-0.472-0.194-1.004-0.25-1.517-0.334
			c-1.297-0.214-2.489-0.754-3.727-1.162c-1.414-0.467-2.744-1.13-4.014-1.865c-2.154-1.249-4.115-2.768-5.848-4.596
			c-1.455-1.534-2.655-3.236-3.756-5.012c-0.619-1-1.08-2.104-1.56-3.185c-0.418-0.947-0.8-1.916-1.124-2.898
			c-0.27-0.816-0.432-1.667-0.641-2.502c-0.125-0.498-0.26-0.994-0.371-1.495c-0.172-0.759-0.329-1.52-0.483-2.282
			c-0.032-0.161-0.026-0.329-0.037-0.494c-0.02-0.308,0.023-0.634-0.065-0.918c-0.412-1.296-0.229-2.629-0.289-3.946
			c-0.025-0.567-0.004-1.137-0.004-1.706C281.242-101.892,281.254-101.892,281.264-101.892z M330.15-101.799
			c0.032-0.003,0.066-0.005,0.102-0.008c-0.137-1.835-0.271-3.671-0.41-5.507c-0.008-0.118-0.021-0.237-0.049-0.352
			c-0.165-0.678-0.389-1.347-0.491-2.035c-0.182-1.211-0.578-2.353-1.038-3.471c-0.696-1.695-1.527-3.316-2.66-4.784
			c-0.731-0.949-1.551-1.8-2.44-2.583c-1.761-1.55-3.858-2.51-6.062-3.22c-0.975-0.314-2.016-0.5-3.039-0.573
			c-1.366-0.097-2.745-0.045-4.119-0.015c-0.416,0.009-0.829,0.161-1.245,0.24c-0.599,0.113-1.224,0.146-1.789,0.346
			c-0.962,0.341-1.897,0.761-2.822,1.193c-1.035,0.483-2.002,1.096-2.862,1.84c-1.005,0.867-1.938,1.809-2.718,2.896
			c-0.854,1.194-1.58,2.459-2.136,3.816c-0.354,0.86-0.76,1.702-0.949,2.624c-0.074,0.364-0.184,0.721-0.283,1.079
			c-0.164,0.581-0.396,1.15-0.488,1.742c-0.155,0.997-0.226,2.008-0.332,3.013c-0.022,0.212-0.025,0.43-0.08,0.634
			c-0.217,0.814-0.164,1.644-0.168,2.47c-0.002,0.735-0.004,1.47,0.002,2.204c0.002,0.26,0.014,0.521,0.039,0.779
			c0.066,0.681,0.146,1.361,0.217,2.042c0.027,0.282,0.016,0.571,0.07,0.847c0.158,0.776,0.34,1.547,0.517,2.319
			c0.203,0.886,0.349,1.793,0.64,2.651c0.303,0.897,0.783,1.734,1.129,2.62c0.683,1.756,1.752,3.263,2.992,4.646
			c1.525,1.701,3.334,3.054,5.444,3.958c0.721,0.309,1.448,0.604,2.226,0.796c0.527,0.13,1.084,0.128,1.575,0.321
			c0.438,0.172,0.865,0.211,1.312,0.213c1.231,0.005,2.467,0.046,3.694-0.014c0.792-0.038,1.6-0.15,2.357-0.373
			c0.792-0.232,1.591-0.46,2.365-0.782c1.106-0.459,2.175-0.993,3.155-1.655c1.492-1.007,2.784-2.249,3.836-3.73
			c1.341-1.888,2.435-3.896,3.09-6.126c0.111-0.379,0.218-0.761,0.335-1.139c0.233-0.757,0.498-1.507,0.526-2.312
			c0.005-0.117,0.037-0.233,0.056-0.35c0.074-0.486,0.155-0.971,0.223-1.458c0.041-0.305,0.055-0.613,0.086-0.918
			c0.062-0.631,0.156-1.261,0.188-1.895C330.176-100.471,330.15-101.136,330.15-101.799z"/>
		<path fill="#FFFFFF" d="M465.018-134.492c0.972,0,1.941,0,2.913,0c0.757,0,1.496,0.027,2.241,0.254
			c0.69,0.211,1.438,0.235,2.156,0.354c0.691,0.113,1.371,0.263,2.027,0.536c0.62,0.257,1.296,0.387,1.913,0.65
			c0.991,0.421,1.971,0.878,2.929,1.371c2.309,1.186,4.137,2.953,5.75,4.943c0.708,0.875,1.188,1.908,1.66,2.942
			c0.383,0.838,0.633,1.718,0.764,2.592c0.203,1.346,0.281,2.749-0.261,4.051c-0.496,1.193-1.291,2.193-2.398,2.893
			c-0.718,0.453-1.503,0.75-2.374,0.758c-0.873,0.008-1.747,0.039-2.581-0.305c-0.679-0.279-1.251-0.708-1.696-1.276
			c-0.706-0.9-1.322-1.862-1.854-2.878c-0.48-0.918-0.914-1.875-1.507-2.717c-1.059-1.502-2.187-2.965-3.854-3.871
			c-0.694-0.377-1.426-0.628-2.205-0.816c-1.825-0.44-3.667-0.59-5.531-0.525c-0.323,0.012-0.646,0.103-0.967,0.159
			c-0.187,0.033-0.37,0.092-0.559,0.101c-1.664,0.08-3.188,0.632-4.604,1.455c-1.443,0.838-2.675,1.915-3.366,3.492
			c-0.243,0.556-0.455,1.118-0.473,1.739c-0.026,1.041,0.034,2.04,0.518,3.015c0.479,0.968,1.16,1.734,1.995,2.36
			c1.085,0.813,2.285,1.422,3.561,1.913c0.868,0.333,1.732,0.631,2.637,0.845c0.9,0.212,1.77,0.553,2.662,0.79
			c0.974,0.257,1.962,0.447,2.938,0.692c0.61,0.153,1.211,0.359,1.817,0.532c0.429,0.121,0.859,0.224,1.288,0.338
			c1.165,0.31,2.341,0.592,3.494,0.94c1.154,0.348,2.313,0.702,3.426,1.162c2.292,0.949,4.53,2.007,6.547,3.487
			c1.718,1.262,3.094,2.805,4.163,4.656c0.539,0.933,0.937,1.917,1.319,2.908c0.216,0.557,0.228,1.19,0.368,1.779
			c0.524,2.174,0.269,4.379,0.24,6.569c-0.013,0.873-0.325,1.739-0.467,2.613c-0.121,0.741-0.431,1.416-0.655,2.121
			c-0.321,1.003-0.848,1.91-1.358,2.818c-0.63,1.115-1.428,2.123-2.295,3.057c-0.955,1.03-2.071,1.887-3.219,2.704
			c-1.229,0.875-2.587,1.516-3.932,2.176c-0.601,0.295-1.276,0.436-1.921,0.64c-0.846,0.269-1.68,0.607-2.546,0.772
			c-0.805,0.152-1.604,0.35-2.408,0.5c-1.289,0.24-2.594,0.146-3.873,0.362c-0.231,0.039-0.474,0.032-0.709,0.026
			c-2.13-0.052-4.266-0.021-6.384-0.205c-0.885-0.077-1.816-0.124-2.69-0.463c-0.541-0.21-1.152-0.23-1.722-0.379
			c-0.604-0.16-1.199-0.363-1.795-0.562c-0.571-0.192-1.135-0.41-1.705-0.606c-1.295-0.445-2.489-1.105-3.61-1.865
			c-1.373-0.931-2.674-1.973-3.774-3.233c-0.964-1.103-1.883-2.243-2.583-3.538c-0.485-0.899-0.967-1.804-1.406-2.726
			c-0.188-0.393-0.278-0.834-0.391-1.26c-0.181-0.698-0.405-1.394-0.496-2.104c-0.135-1.069-0.235-2.143,0.084-3.219
			c0.14-0.471,0.295-0.922,0.528-1.348c0.674-1.231,1.681-2.121,2.995-2.559c0.699-0.233,1.485-0.28,2.231-0.271
			c1.474,0.018,2.735,0.591,3.682,1.743c0.859,1.048,1.455,2.244,1.952,3.511c0.618,1.575,1.379,3.086,2.301,4.521
			c0.644,1,1.44,1.831,2.321,2.588c0.689,0.593,1.486,1.046,2.32,1.419c0.635,0.283,1.295,0.472,1.971,0.652
			c1.871,0.5,3.769,0.556,5.68,0.513c0.209-0.005,0.417-0.064,0.624-0.103c0.277-0.053,0.555-0.152,0.834-0.157
			c0.879-0.017,1.692-0.282,2.525-0.522c0.811-0.233,1.585-0.528,2.317-0.927c1.323-0.72,2.512-1.597,3.445-2.82
			c0.53-0.696,1.006-1.409,1.271-2.229c0.207-0.643,0.358-1.321,0.407-1.993c0.076-1.037,0.062-2.083-0.281-3.09
			c-0.319-0.938-0.784-1.785-1.467-2.512c-1.201-1.278-2.598-2.256-4.256-2.85c-1.004-0.359-1.994-0.758-3.012-1.073
			c-0.863-0.267-1.76-0.428-2.636-0.656c-1.014-0.264-2.017-0.564-3.03-0.822c-0.89-0.226-1.791-0.399-2.681-0.625
			c-0.606-0.154-1.203-0.357-1.803-0.538c-0.379-0.113-0.753-0.243-1.137-0.336c-1.809-0.441-3.531-1.138-5.237-1.85
			c-1.975-0.824-3.826-1.92-5.458-3.311c-1.549-1.318-2.869-2.874-3.78-4.702c-0.473-0.949-0.917-1.937-1.075-3.022
			c-0.129-0.881-0.465-1.742-0.512-2.623c-0.074-1.384-0.242-2.783,0.146-4.163c0.177-0.632,0.258-1.292,0.366-1.941
			c0.176-1.05,0.61-2.013,1.048-2.961c0.896-1.942,2.209-3.612,3.81-5.002c1.116-0.97,2.343-1.846,3.71-2.469
			c1.049-0.479,2.102-0.953,3.17-1.386c0.448-0.182,0.942-0.25,1.413-0.376c0.427-0.115,0.845-0.269,1.276-0.356
			c1.455-0.293,2.907-0.607,4.375-0.827c0.767-0.115,1.561-0.055,2.342-0.063c0.688-0.008,1.375-0.001,2.062-0.001
			C465.017-134.508,465.017-134.5,465.018-134.492z"/>
		<path fill="#FFFFFF" d="M45.788-123.482c0,0.345,0,0.533,0,0.721c0,4.668,0,9.337,0,14.005c0,0.119,0.001,0.237,0.003,0.355
			c0.006,0.349,0.234,0.504,0.533,0.556c0.207,0.036,0.425,0.014,0.638,0.014c8.603,0,17.205,0,25.807,0.001
			c0.403,0,0.806,0.001,1.208,0.022c1.295,0.07,2.413,0.581,3.274,1.528c0.407,0.447,0.679,1.014,0.864,1.639
			c0.188,0.632,0.26,1.249,0.221,1.882c-0.097,1.553-0.761,2.836-2.086,3.662c-0.881,0.548-1.884,0.797-2.957,0.795
			c-8.745-0.014-17.489-0.004-26.234-0.011c-1.529-0.001-1.267,0.093-1.269,1.279c-0.007,5.285-0.003,10.569-0.003,15.854
			c0,0.189-0.01,0.38,0.004,0.568c0.033,0.427,0.235,0.62,0.676,0.648c0.188,0.012,0.379,0.003,0.568,0.003
			c9.74,0,19.48,0,29.22,0.001c0.379,0,0.763-0.019,1.136,0.03c1.749,0.229,3.171,0.926,3.962,2.64
			c0.438,0.948,0.651,1.914,0.523,2.931c-0.203,1.611-0.955,2.912-2.422,3.693c-0.915,0.487-1.917,0.777-2.957,0.778
			c-12.134,0.013-24.267,0.015-36.4-0.004c-0.98-0.001-1.944-0.201-2.891-0.545c-0.643-0.234-1.232-0.503-1.785-0.898
			c-0.981-0.701-1.429-1.708-1.808-2.807c-0.521-1.514-0.476-3.063-0.476-4.617c-0.002-15.688-0.004-31.376,0.006-47.065
			c0.001-0.849,0.02-1.718,0.194-2.542c0.443-2.089,1.52-3.745,3.601-4.539c0.56-0.214,1.186-0.259,1.784-0.365
			c2.397-0.423,4.815-0.189,7.223-0.196c9.622-0.031,19.243-0.009,28.865-0.018c1.143-0.001,2.269,0.151,3.315,0.562
			c1.036,0.407,1.811,1.179,2.297,2.221c0.538,1.153,0.455,2.381,0.261,3.539c-0.194,1.158-0.931,2.118-2.002,2.721
			c-0.61,0.343-1.276,0.51-1.972,0.655c-1.532,0.32-3.067,0.176-4.598,0.18c-8.389,0.021-16.778,0.008-25.167,0.015
			C46.581-123.59,46.215-123.524,45.788-123.482z"/>
		<path fill="#FFFFFF" d="M227.242-93.34c-1.891,2.896-3.711,5.674-5.521,8.459c-1.101,1.695-2.173,3.409-3.281,5.1
			c-1.02,1.557-2.074,3.091-3.106,4.64c-0.851,1.276-1.667,2.578-2.547,3.833c-0.789,1.124-1.91,1.892-3.197,2.269
			c-0.934,0.273-1.958,0.372-2.95,0.153c-0.452-0.1-0.907-0.087-1.367-0.279c-1.233-0.514-2.146-1.344-2.665-2.535
			c-0.231-0.531-0.494-1.107-0.443-1.745c0.036-0.447,0.032-0.901,0-1.35c-0.061-0.843,0.29-1.588,0.493-2.374
			c0.388-1.494,1.217-2.768,1.957-4.084c0.382-0.68,0.877-1.296,1.316-1.945c0.744-1.1,1.484-2.203,2.228-3.303
			c0.583-0.862,1.167-1.723,1.756-2.581c1.078-1.57,2.166-3.132,3.236-4.706c1.376-2.022,2.74-4.053,4.109-6.081
			c0.64-0.947,1.261-1.908,1.93-2.833c0.187-0.258,0.206-0.389,0.03-0.66c-1.378-2.124-2.722-4.27-4.097-6.396
			c-1.011-1.562-2.071-3.093-3.08-4.656c-1.574-2.437-3.147-4.875-4.676-7.341c-0.844-1.359-1.587-2.774-2.281-4.223
			c-0.763-1.593-0.953-3.226-0.776-4.92c0.086-0.828,0.674-1.457,1.224-2.065c0.683-0.758,1.624-1.076,2.508-1.489
			c0.121-0.057,0.28-0.04,0.421-0.042c0.592-0.011,1.185-0.002,1.776-0.028c1.709-0.074,3.021,0.7,4.06,1.965
			c1.135,1.383,2.146,2.855,3.036,4.415c0.667,1.171,1.447,2.277,2.161,3.422c0.749,1.202,1.473,2.418,2.215,3.624
			c0.69,1.122,1.396,2.234,2.084,3.357c0.803,1.311,1.59,2.631,2.392,3.941c0.397,0.648,0.812,1.285,1.285,2.031
			c0.308-0.385,0.571-0.669,0.783-0.986c0.955-1.429,1.9-2.864,2.838-4.304c0.991-1.521,1.964-3.054,2.954-4.577
			c1.365-2.1,2.739-4.193,4.105-6.292c0.649-0.998,1.268-2.015,1.937-3c0.795-1.171,1.595-2.352,2.899-3.038
			c0.6-0.315,1.208-0.603,1.924-0.559c0.52,0.031,1.042,0.004,1.563,0.006c1.401,0.005,2.487,0.67,3.43,1.637
			c0.495,0.507,0.843,1.105,1.083,1.763c0.078,0.215,0.084,0.464,0.087,0.697c0.009,0.64,0.081,1.293-0.026,1.915
			c-0.132,0.75-0.355,1.501-0.663,2.198c-0.401,0.912-0.898,1.784-1.398,2.649c-0.451,0.781-0.958,1.53-1.444,2.291
			c-0.728,1.135-1.448,2.275-2.19,3.4c-0.804,1.217-1.638,2.415-2.446,3.629c-0.963,1.448-1.904,2.911-2.869,4.358
			c-0.876,1.314-1.777,2.611-2.656,3.924c-0.671,1.004-1.326,2.02-1.992,3.038c0.626,0.985,1.222,1.925,1.821,2.862
			c0.373,0.584,0.75,1.166,1.126,1.748c0.918,1.424,1.839,2.847,2.755,4.272c0.969,1.506,1.93,3.017,2.903,4.521
			c1.387,2.144,2.791,4.276,4.168,6.426c0.952,1.485,1.917,2.965,2.79,4.498c0.487,0.857,0.845,1.784,1.065,2.778
			c0.135,0.607,0.26,1.196,0.229,1.806c-0.104,1.985-0.991,3.5-2.71,4.542c-1.166,0.707-2.432,0.783-3.728,0.736
			c-1.617-0.058-2.942-0.767-3.981-1.968c-0.558-0.645-1.025-1.372-1.493-2.088c-1.015-1.557-2.008-3.129-3.003-4.7
			c-0.969-1.531-1.924-3.071-2.894-4.601c-1.292-2.038-2.596-4.068-3.888-6.106c-0.908-1.432-1.799-2.875-2.708-4.306
			C227.687-92.841,227.476-93.053,227.242-93.34z"/>
		<path fill="#FFFFFF" d="M117.165-122.91c0,0.415,0,0.74,0,1.066c0,15.26,0,30.52,0,45.78c0,0.566-0.003,1.12-0.224,1.672
			c-0.188,0.469-0.148,0.996-0.312,1.503c-0.458,1.43-1.303,2.504-2.561,3.275c-1.328,0.813-2.79,0.92-4.286,0.717
			c-0.503-0.068-1.005-0.095-1.504-0.324c-1.045-0.479-1.952-1.099-2.584-2.058c-0.499-0.757-0.746-1.617-1.017-2.487
			c-0.309-0.991-0.264-1.958-0.265-2.939c-0.01-15-0.007-29.999-0.007-44.998c0-0.352,0-0.704,0-1.138
			c-0.363-0.026-0.659-0.066-0.955-0.066c-4.597-0.004-9.194-0.017-13.791,0.008c-1.064,0.006-2.08-0.198-3.021-0.625
			c-1.109-0.503-1.896-1.358-2.37-2.532c-0.458-1.131-0.407-2.294-0.237-3.41c0.215-1.407,1.089-2.498,2.357-3.186
			c0.654-0.355,1.383-0.512,2.129-0.657c1.346-0.261,2.686-0.16,4.026-0.162c13.009-0.014,26.018-0.019,39.027,0.009
			c1.207,0.002,2.435,0.152,3.532,0.768c1.062,0.597,1.83,1.41,2.268,2.6c0.414,1.122,0.384,2.262,0.182,3.34
			c-0.208,1.11-0.847,2.08-1.883,2.754c-1.149,0.748-2.373,1.091-3.722,1.09c-4.621-0.002-9.241-0.001-13.862-0.001
			C117.809-122.91,117.532-122.91,117.165-122.91z"/>
		<path fill="#FFFFFF" d="M271.836-101.681c0,8.671,0.002,17.343-0.002,26.015c-0.001,1.683-0.48,3.227-1.462,4.597
			c-0.624,0.872-1.466,1.471-2.478,1.842c-1.203,0.441-2.42,0.46-3.683,0.307c-1.948-0.238-3.235-1.388-4.17-2.967
			c-0.392-0.66-0.534-1.465-0.729-2.234c-0.457-1.808-0.24-3.626-0.244-5.435c-0.022-15.922-0.014-31.844-0.012-47.766
			c0-0.542-0.002-1.069,0.221-1.599c0.193-0.463,0.14-0.994,0.306-1.501c0.262-0.799,0.644-1.509,1.174-2.115
			c0.647-0.738,1.427-1.299,2.382-1.688c0.957-0.389,1.897-0.262,2.848-0.283c1.925-0.042,3.387,0.857,4.519,2.363
			c0.562,0.747,0.782,1.621,1.062,2.496c0.313,0.983,0.266,1.96,0.267,2.946C271.839-118.361,271.836-110.021,271.836-101.681z"/>
		<path fill="#FFFFFF" d="M430.01-101.654c0,8.603-0.011,17.206,0.013,25.809c0.004,1.416-0.322,2.737-0.925,3.98
			c-0.403,0.837-1.049,1.508-1.846,2.046c-1.48,1-3.088,1.103-4.792,0.902c-1.907-0.225-3.221-1.3-4.15-2.862
			c-0.381-0.641-0.499-1.439-0.729-2.167c-0.028-0.088,0.007-0.199-0.029-0.281c-0.443-0.997-0.289-2.052-0.29-3.086
			c-0.007-16.661-0.005-33.322-0.006-49.983c0-0.569,0.024-1.121,0.242-1.67c0.186-0.47,0.138-0.998,0.315-1.503
			c0.236-0.669,0.529-1.294,0.96-1.827c0.678-0.841,1.488-1.496,2.54-1.917c1.072-0.43,2.141-0.308,3.203-0.278
			c1.733,0.048,3.077,0.9,4.123,2.278c0.595,0.781,0.837,1.672,1.12,2.587c0.284,0.917,0.245,1.819,0.246,2.732
			C430.014-118.481,430.01-110.068,430.01-101.654z"/>
	</g>
</g>
<g>
	<g transform="translate(-256.000000, -192.000000)">
		<g transform="translate(261.000000, 193.000000)">
			<path fill="#62CE00" d="M84.682,31.046c0,1.957,1.592,3.544,3.557,3.544h16.522c1.961,0,3.557-1.59,3.557-3.544v-18.91H84.682
				V31.046z M83.5,10.955h26v20.092c0,2.61-2.127,4.727-4.739,4.727H88.239c-2.617,0-4.739-2.116-4.739-4.727V10.955z"/>
			<path fill="#0FC6E9" d="M101.514,23.263c0.92-0.921,0.922-2.422,0-3.343c-0.922-0.921-2.421-0.922-3.343,0L96.5,21.591
				l-1.671-1.671c-0.921-0.92-2.422-0.921-3.343,0c-0.921,0.921-0.922,2.421,0,3.343l5.014,5.014L101.514,23.263z M102.35,19.084
				c1.385,1.384,1.38,3.634,0,5.014l-5.85,5.85l-5.85-5.85c-1.385-1.385-1.382-3.632,0-5.014c1.384-1.385,3.634-1.38,5.014,0
				l0.835,0.835l0.835-0.835C98.72,17.699,100.968,17.702,102.35,19.084z"/>
			<path fill="#62CE00" d="M90,16.273c0.979,0,1.773-0.794,1.773-1.773S90.979,12.727,90,12.727s-1.773,0.794-1.773,1.773
				S89.021,16.273,90,16.273z M90,15.091c-0.326,0-0.591-0.265-0.591-0.591s0.265-0.591,0.591-0.591s0.591,0.265,0.591,0.591
				S90.326,15.091,90,15.091z"/>
			<path fill="#62CE00" d="M103,16.273c0.979,0,1.773-0.794,1.773-1.773s-0.794-1.773-1.773-1.773s-1.773,0.794-1.773,1.773
				S102.021,16.273,103,16.273z M103,15.091c-0.326,0-0.591-0.265-0.591-0.591s0.265-0.591,0.591-0.591s0.591,0.265,0.591,0.591
				S103.326,15.091,103,15.091z"/>
			<path fill="#62CE00" d="M103.591,13.318V8.591c0-3.916-3.175-7.091-7.091-7.091s-7.091,3.175-7.091,7.091v4.728
				c0,0.326,0.265,0.591,0.591,0.591s0.591-0.265,0.591-0.591V8.591c0-3.263,2.646-5.909,5.909-5.909s5.909,2.646,5.909,5.909v4.728
				c0,0.326,0.265,0.591,0.591,0.591S103.591,13.645,103.591,13.318z"/>
		</g>
	</g>
</g>
<g>
	<g>
		<path fill="#FFFFFF" d="M120.623-12.956c0.129-0.268,0.277-0.527,0.387-0.802c0.538-1.33,1.066-2.662,1.597-3.994
			c0.02-0.052,0.036-0.11,0.057-0.18c-0.381-0.203-0.763-0.396-0.907-0.913c0.396-0.113,0.787-0.214,1.17-0.342
			c0.12-0.04,0.278-0.131,0.313-0.235c0.414-1.23,0.81-2.469,1.209-3.707c0.014-0.042,0.002-0.093,0.002-0.141
			c-0.246-0.046-0.487-0.066-0.714-0.137c-0.652-0.205-0.945-0.791-0.713-1.429c0.034-0.094,0.201-0.208,0.299-0.199
			c2.117,0.162,4.216-0.072,6.317-0.273c0.048-0.004,0.096-0.013,0.144-0.018c1.135-0.106,1.653,0.32,1.799,1.479
			c-0.299,0-0.596-0.014-0.893,0.002c-1.093,0.06-2.187,0.124-3.279,0.204c-0.119,0.008-0.286,0.11-0.336,0.213
			c-0.599,1.232-1.182,2.473-1.793,3.767c0.686-0.068,1.293-0.128,1.899-0.186c0.084-0.009,0.167-0.016,0.252-0.017
			c1.065-0.017,1.534,0.598,1.262,1.613c-0.438,0-0.869-0.034-1.295,0.008c-0.899,0.084-1.796,0.197-2.689,0.331
			c-0.12,0.019-0.256,0.198-0.312,0.333c-0.802,1.916-1.47,3.874-1.85,5.922c-0.017,0.093-0.047,0.185-0.076,0.296
			c-0.883-0.159-1.387-0.778-1.851-1.449C120.623-12.859,120.623-12.908,120.623-12.956z"/>
		<path fill="#FFFFFF" d="M155.955-20.328c-1.331,1.896-2.344,3.905-2.832,6.155c-0.053,0.243-0.028,0.504-0.039,0.755
			c0.042,0.021,0.085,0.043,0.126,0.063c0.234-0.157,0.519-0.271,0.692-0.479c0.583-0.701,1.196-1.394,1.672-2.167
			c0.814-1.324,1.541-2.701,2.289-4.062c0.133-0.241,0.294-0.336,0.547-0.26c0.367,0.113,0.737,0.223,1.089,0.37
			c0.077,0.032,0.157,0.254,0.119,0.331c-1.108,2.192-1.761,4.559-2.634,6.84c-0.697,1.822-1.67,3.479-3.102,4.829
			c-0.962,0.909-2.053,1.532-3.442,1.368c-0.782-0.091-1.504-0.339-2.078-0.911c-0.216-0.216-0.216-0.41,0.078-0.599
			c0.867,0.905,1.824,0.594,2.764,0.168c0.875-0.399,1.54-1.073,2.117-1.826c1.268-1.653,2.02-3.55,2.573-5.538
			c0.006-0.02-0.009-0.045-0.019-0.087c-0.379,0.523-0.727,1.059-1.131,1.545c-0.353,0.423-0.763,0.802-1.163,1.183
			c-0.277,0.263-0.62,0.328-0.973,0.173c-0.295-0.129-0.595-0.266-0.856-0.451c-0.422-0.303-0.584-0.731-0.536-1.264
			c0.114-1.246,0.516-2.408,1.062-3.509c0.437-0.879,0.986-1.705,1.514-2.536C154.416-21.214,155.292-20.812,155.955-20.328z"/>
		<path fill="#FFFFFF" d="M195.533-7.782c-0.122-0.206-0.245-0.41-0.364-0.619c-0.117-0.205-0.189-0.455-0.355-0.606
			c-0.175-0.161-0.223-0.289-0.186-0.52c0.514-3.159,1.392-6.229,2.245-9.306c0.037-0.136,0.072-0.274,0.126-0.48
			c-0.444,0.02-0.849,0.016-1.247,0.065c-0.292,0.037-0.405-0.062-0.407-0.404c0.499-0.102,1.01-0.231,1.528-0.299
			c0.267-0.037,0.354-0.159,0.431-0.388c0.498-1.472,1.132-2.874,2.206-4.028c0.799-0.86,1.734-1.415,2.975-1.242
			c0.137,0.019,0.296-0.073,0.437-0.131c0.37-0.151,0.732-0.256,1.089,0.075c-0.287,0.772-0.572,1.548-0.866,2.322
			c-0.052,0.133-0.123,0.267-0.214,0.375c-0.119,0.136-0.268,0.247-0.404,0.369c-0.05-0.166-0.122-0.328-0.147-0.498
			c-0.093-0.636-0.172-1.275-0.265-1.986c-0.18,0.139-0.443,0.258-0.576,0.462c-0.453,0.693-0.905,1.395-1.272,2.134
			c-0.364,0.729-0.624,1.509-0.944,2.305c0.401,0,0.746,0.033,1.08-0.011c0.346-0.043,0.493,0.083,0.522,0.407
			c0.017,0.179,0.043,0.356,0.074,0.6c-0.46-0.024-0.886-0.051-1.311-0.067c-0.572-0.023-0.583-0.025-0.753,0.532
			c-1.004,3.27-2.005,6.542-3.001,9.811c-0.108,0.356-0.173,0.724-0.26,1.084C195.627-7.812,195.581-7.797,195.533-7.782z"/>
		<path fill="#FFFFFF" d="M171.858-20.312c-1.072,1.557-1.939,3.219-2.513,5.024c-0.124,0.39-0.223,0.79-0.299,1.191
			c-0.04,0.213-0.007,0.439-0.007,0.769c0.215-0.166,0.368-0.243,0.466-0.362c1.223-1.491,2.486-2.95,3.201-4.789
			c0.228-0.585,0.624-1.105,0.95-1.652c0.042-0.07,0.101-0.141,0.17-0.184c0.239-0.14,1.515,0.227,1.611,0.477
			c0.034,0.09-0.019,0.232-0.067,0.334c-0.461,0.981-0.944,1.954-1.393,2.941c-0.401,0.884-0.727,1.8-0.611,2.792
			c0.052,0.435,0.213,0.856,0.338,1.333c-0.671-0.08-1.275-0.317-1.757-0.758c-0.526-0.48-0.509-1.157-0.514-1.85
			c-0.253,0.314-0.505,0.629-0.76,0.941c-0.386,0.477-0.766,0.96-1.166,1.427c-0.244,0.283-0.578,0.376-0.917,0.211
			c-0.375-0.18-0.779-0.356-1.064-0.641c-0.213-0.211-0.381-0.604-0.356-0.896c0.208-2.413,1.146-4.539,2.684-6.396
			C170.355-20.998,171.288-20.934,171.858-20.312z"/>
		<path fill="#FFFFFF" d="M193.849-25.893c-3.322,4.248-5.152,9.047-5.748,14.39c-0.088-0.035-0.274-0.059-0.38-0.165
			c-0.524-0.519-0.971-1.06-0.963-1.885c0.012-1.117,0.269-2.176,0.596-3.222c0.94-3.005,2.037-5.949,3.596-8.698
			c0.254-0.449,0.565-0.869,0.862-1.292c0.052-0.072,0.187-0.16,0.25-0.139C192.729-26.686,193.339-26.365,193.849-25.893z"/>
		<path fill="#FFFFFF" d="M144.665-11.462c-0.16-0.111-0.338-0.23-0.513-0.356c-0.037-0.026-0.049-0.087-0.085-0.115
			c-0.911-0.73-0.802-1.734-0.648-2.694c0.351-2.179,1.161-4.222,1.96-6.266c0.663-1.695,1.383-3.367,2.346-4.92
			c0.196-0.317,0.428-0.613,0.629-0.926c0.112-0.17,0.235-0.227,0.421-0.127c0.559,0.297,1.118,0.589,1.704,0.898
			C147.108-21.664,145.277-16.862,144.665-11.462z"/>
		<path fill="#FFFFFF" d="M166.596-17.977c-0.05,2.56-1.694,4.864-4.083,5.664c-0.919,0.306-1.745,0.034-2.296-0.773
			c-0.537-0.787-0.615-1.675-0.448-2.571c0.355-1.921,1.318-3.485,2.93-4.605c0.355-0.248,0.803-0.362,1.215-0.527
			c0.254-0.103,0.471-0.017,0.653,0.173c0.133,0.14,0.283,0.269,0.389,0.427c0.221,0.33,0.411,0.627,0.906,0.61
			c0.175-0.006,0.442,0.295,0.526,0.512C166.52-18.728,166.533-18.342,166.596-17.977z M165.176-19.249
			c-0.051-0.015-0.099-0.03-0.149-0.044c-0.279,0.137-0.576,0.246-0.833,0.415c-1.555,1.015-2.378,2.516-2.798,4.276
			c-0.121,0.512-0.071,1.005,0.144,1.485c0.102,0.229,0.261,0.324,0.488,0.209c0.447-0.229,0.94-0.41,1.321-0.724
			c1.372-1.127,1.896-2.663,1.939-4.386C165.299-18.425,165.215-18.838,165.176-19.249z"/>
		<path fill="#FFFFFF" d="M141.88-14.917c0.24,0.141,0.36,0.256,0.16,0.497c-0.661,0.795-1.399,1.499-2.318,1.991
			c-1.001,0.536-2.038,0.344-2.803-0.503c-0.567-0.628-0.732-1.384-0.625-2.189c0.279-2.13,1.293-3.835,3.054-5.079
			c0.224-0.158,0.478-0.281,0.732-0.384c0.955-0.391,1.703-0.2,2.349,0.6c0.082,0.1,0.131,0.261,0.123,0.388
			c-0.112,1.582-0.79,2.851-2.164,3.679c-0.667,0.402-1.384,0.727-2.092,1.059c-0.198,0.093-0.312,0.18-0.304,0.413
			c0.018,0.516-0.057,1.104,0.453,1.408c0.48,0.285,1.018,0.079,1.433-0.206c0.63-0.436,1.202-0.956,1.795-1.445
			C141.746-14.749,141.802-14.83,141.88-14.917z M141.335-19.202c-1.144,0.042-2.78,1.909-3.137,3.732
			C139.724-15.921,141.419-17.939,141.335-19.202z"/>
		<path fill="#FFFFFF" d="M135.044-14.884c0.061,0.066,0.142,0.151,0.241,0.259c-0.866,1.096-1.834,2.035-3.176,2.488
			c-0.193,0.063-0.434,0.052-0.636,0.006c-1.544-0.353-2.312-1.474-2.061-3.174c0.307-2.092,1.354-3.767,3.122-4.956
			c0.266-0.178,0.577-0.301,0.88-0.407c0.444-0.156,0.894-0.177,1.334,0.048c0.794,0.407,0.966,0.767,0.815,1.641
			c-0.237,1.372-0.968,2.408-2.15,3.107c-0.661,0.391-1.37,0.703-2.067,1.031c-0.192,0.091-0.294,0.193-0.266,0.405
			c0.047,0.344,0.06,0.698,0.153,1.029c0.092,0.333,0.361,0.552,0.716,0.462c0.46-0.118,0.952-0.231,1.336-0.487
			C133.9-13.847,134.438-14.376,135.044-14.884z M131.302-15.455c1.69-0.688,3.298-2.628,3.118-3.765
			C132.856-19.018,131.427-16.628,131.302-15.455z"/>
		<path fill="#FFFFFF" d="M206.025-14.921c0.074,0.084,0.152,0.171,0.253,0.285c-0.885,1.102-1.837,2.111-3.215,2.494
			c-0.811,0.225-1.527-0.218-2.084-0.815c-0.681-0.729-0.733-1.633-0.563-2.549c0.34-1.838,1.246-3.36,2.734-4.496
			c0.41-0.313,0.917-0.528,1.41-0.701c0.897-0.314,1.566,0.258,2.003,0.798c0.063,0.079,0.062,0.228,0.055,0.339
			c-0.103,1.499-0.724,2.728-2.003,3.542c-0.708,0.449-1.481,0.8-2.241,1.161c-0.239,0.113-0.337,0.241-0.317,0.487
			c0.015,0.18,0.015,0.361,0.042,0.539c0.135,0.833,0.505,1.064,1.323,0.82c0.925-0.277,1.589-0.931,2.249-1.588
			c0.076-0.078,0.148-0.16,0.225-0.234C205.919-14.865,205.955-14.878,206.025-14.921z M205.428-19.23
			c-1.359,0.258-3.111,2.376-3.133,3.764C203.753-16.096,205.446-17.707,205.428-19.23z"/>
		<path fill="#FFFFFF" d="M181.744-16.416c-0.69-0.355-1.094-0.877-1.373-1.538c-2.23,1.286-3.117,3.384-3.543,5.807
			c-0.579-0.135-1.022-0.413-1.366-0.847c-0.047-0.059-0.041-0.185-0.02-0.269c0.541-2.393,1.27-4.728,2.299-6.955
			c0.421-0.911,0.401-0.828,1.314-0.476c0.308,0.12,0.585,0.321,0.928,0.514c-0.737,0.89-1.159,1.875-1.426,2.96
			c0.3-0.279,0.623-0.539,0.896-0.843c0.611-0.682,1.204-1.379,1.789-2.083c0.253-0.304,0.931-0.369,1.182-0.066
			c0.046,0.056,0.05,0.181,0.025,0.259c-0.254,0.834-0.387,1.668-0.064,2.518c0.026,0.072-0.008,0.195-0.057,0.263
			C182.146-16.919,181.948-16.678,181.744-16.416z"/>
		<path fill="#FFFFFF" d="M192.155-12.444c-0.792-0.106-1.413-0.814-1.316-1.558c0.187-1.434,0.39-2.874,0.946-4.217
			c0.215-0.521,0.601-0.975,0.939-1.438c0.156-0.215,0.412-0.261,0.646-0.1c0.375,0.256,0.742,0.524,1.103,0.8
			c0.143,0.109,0.131,0.227,0.027,0.399c-0.42,0.699-0.875,1.39-1.189,2.136c-0.419,0.995-0.733,2.037-1.061,3.069
			C192.161-13.077,192.185-12.766,192.155-12.444z"/>
		<path fill="#FFFFFF" d="M196.518-23.251c-0.657,0.801-1.297,1.583-1.96,2.393c-0.269-0.095-0.519-0.23-0.435-0.627
			c0.009-0.045,0.014-0.099-0.004-0.14c-0.421-0.944,0.096-1.783,0.316-2.649c0.017-0.059,0.218-0.12,0.319-0.101
			C195.305-24.271,196.153-23.716,196.518-23.251z"/>
	</g>
</g>
<g>
	<path fill="#A9E74C" d="M151,27.495c0,1.108-0.854,2.007-1.907,2.007h-19.187c-1.053,0-1.907-0.898-1.907-2.007l0,0
		c0-1.108,0.854-2.007,1.907-2.007h19.187C150.146,25.488,151,26.387,151,27.495L151,27.495z"/>
	<path fill="#A9E74C" d="M151,18.5c0,1.108-0.854,2.007-1.907,2.007h-19.187c-1.053,0-1.907-0.899-1.907-2.007l0,0
		c0-1.108,0.854-2.007,1.907-2.007h19.187C150.146,16.493,151,17.392,151,18.5L151,18.5z"/>
</g>
</svg>
